<?xml version="1.0" encoding="utf-8"?>
<!-- Generator: Adobe Illustrator 24.3.0, SVG Export Plug-In . SVG Version: 6.00 Build 0)  -->
<svg version="1.1" id="Layer_1" xmlns="http://www.w3.org/2000/svg" xmlns:xlink="http://www.w3.org/1999/xlink" x="0px" y="0px"
	 viewBox="0 0 864 864" style="enable-background:new 0 0 864 864;" xml:space="preserve">
<style type="text/css">
	.st0{fill:#FEFEFD;}
	.st1{fill:#493628;}
	.st2{fill:#E17D03;}
</style>
<g>
	<path class="st0" d="M229.61,432.12c0-103.45,0.03-206.9-0.11-310.34c0-3.75,0.96-4.27,4.4-4.27c132.07,0.1,264.14,0.1,396.22,0
		c3.48,0,4.38,0.57,4.38,4.29c-0.12,206.73-0.12,413.46,0,620.19c0,3.87-1.01,4.53-4.64,4.52c-131.91-0.1-263.81-0.1-395.72,0
		c-3.64,0-4.63-0.69-4.63-4.54C229.64,638.68,229.61,535.4,229.61,432.12z M289.73,448.3c12.99-15.98,26.67-30.75,41.01-44.92
		c2.72-2.69,5.65-5.21,8.03-8.19c12.15-15.21,22.99-31.36,33.83-47.51c9.98-14.88,19.82-29.99,35.99-39.13
		c4.42-2.5,7.9-5.91,11.33-9.45c6.79-7.01,14.02-13.54,21.64-19.62c7.57-6.03,23.2-4.84,25.49,9.41c1.38,8.59-0.69,16.71-1.47,25.01
		c-0.16,1.64,0.02,2.57,1,3.84c3.99,5.18,8.87,9.89,10.93,16.23c1.39,4.27,3.94,7.14,7.52,9.35c6.52,4.04,13.18,7.86,19.64,12
		c5.02,3.21,7.24,8.1,8.17,13.98c1.45,9.12-8.64,20.7-17.83,22.59c-7.11,1.46-14.32,2.1-21.59,2.2c-5.56,0.08-10.31,1.62-14.48,5.97
		c-8.58,8.95-14.39,19.66-19.17,30.69c-7.54,17.41-17.97,32.77-30.32,46.83c-8.79,10.01-12,21.78-11.05,34.19
		c1.41,18.4,8.03,35.75,13.68,53.22c0.41,1.27,0.85,2.46,2.83,2.88c14.57,3.03,27.99,9.17,40.98,16.19c2.68,1.45,4.2,0.8,5.79-0.53
		c8.98-7.46,18.2-14.68,26.66-22.7c13.08-12.38,25.44-25.46,36.84-39.5c14.4-17.73,26.79-36.7,37.66-56.73
		c13.35-24.59,23.58-50.45,31.2-77.34c4.48-15.8,7.95-31.86,10.38-48.09c2.32-15.5,3.41-31.13,4.49-46.78
		c1.26-18.11-0.29-36.01-1.5-53.98c-0.23-3.38-2.1-5.42-5.7-6.34c-20.04-5.13-40.43-8.38-60.81-11.75
		c-19.64-3.25-39.33-5.91-59.23-7.27c-18.42-1.26-36.8-2.28-55.28-1.97c-19.68,0.33-39.32,1.1-58.88,3.29
		c-11.93,1.34-23.89,2.49-35.75,4.26c-15.41,2.3-30.76,5.04-46.11,7.75c-9.34,1.65-18.85,2.59-27.85,5.85
		c-2.15,0.78-4.03,1.42-4.45,4.48c-1.9,13.61-2.63,27.34-2.53,40.99c0.07,10.18,0.62,20.45,1.49,30.67
		c1.2,14.13,2.87,28.2,5.43,42.1c4.76,25.84,11.79,51.11,21.72,75.48C282.51,433.47,285.2,441.2,289.73,448.3z M512.05,647.59
		c-0.89-2.61-2.27-4.16-3.77-5.7c-7.5-7.76-15.76-14.61-24.16-21.36c-22.48-18.09-46.67-32.85-75-39.85c-2.45-0.6-3.93-2-4.83-4.43
		c-5.47-14.74-11.27-29.41-14.67-44.78c-4.93-22.36-4.61-44.14,9.94-63.56c7.01-9.36,14.8-18.2,20.22-28.63
		c6.01-11.56,10.91-23.7,17.91-34.74c7.51-11.83,15.08-23.74,31.44-24.07c2.15-0.04,4.3-0.25,6.45-0.36
		c5.44-0.26,10.92-0.39,16.16-2.07c3.29-1.06,5.97-3.34,6.74-6.65c0.86-3.72-2.74-4.86-5.17-6.37c-4.61-2.88-9.3-5.65-14-8.39
		c-6.87-4-12.29-8.98-14.98-16.94c-2.08-6.15-6.27-11.36-11.85-14.87c-2.55-1.61-2.94-3.39-2.35-5.77
		c1.55-6.28,2.52-12.66,3.28-19.07c0.36-3.07,1.84-7.25-1.06-8.83c-2.91-1.58-5.33,2.04-7.6,4.1
		c-10.49,9.52-19.42,20.83-32.29,27.63c-2.99,1.58-5.42,4.32-7.93,6.71c-10.4,9.88-17.23,22.48-25.42,34.02
		c-10.69,15.07-20.49,30.78-32.95,44.54c-10.9,12.05-22.98,22.95-33.62,35.27c-11.79,13.65-23.1,27.62-32.04,43.33
		c-14.94,26.24-23.1,54.03-19.09,84.63c4.72,36.06,24.34,61.21,56.53,76.68c23.58,11.33,48.88,17.41,74.64,21.18
		c18.14,2.66,36.49,2.88,54.08-3.15c19.25-6.6,38.31-5.91,57.6-0.99c6.17,1.57,12.36,3.04,19.26,4.73
		c-1.67-2.58-3.29-3.85-5.04-5.13c-5.73-4.18-11.84-7.76-17.81-11.56c-1.26-0.8-3.1-1.89-2.67-3.85c0.41-1.86,2.27-1.64,3.72-1.67
		C505.02,647.55,508.3,647.59,512.05,647.59z"/>
	<path class="st1" d="M289.73,448.3c-4.53-7.09-7.23-14.82-10.28-22.33c-9.93-24.37-16.96-49.64-21.72-75.48
		c-2.56-13.9-4.23-27.97-5.43-42.1c-0.87-10.22-1.41-20.49-1.49-30.67c-0.1-13.65,0.63-27.38,2.53-40.99
		c0.43-3.06,2.31-3.7,4.45-4.48c9.01-3.26,18.51-4.2,27.85-5.85c15.35-2.71,30.69-5.46,46.11-7.75c11.87-1.77,23.82-2.92,35.75-4.26
		c19.56-2.19,39.2-2.95,58.88-3.29c18.49-0.31,36.86,0.72,55.28,1.97c19.9,1.36,39.58,4.02,59.23,7.27
		c20.37,3.37,40.76,6.62,60.81,11.75c3.6,0.92,5.48,2.96,5.7,6.34c1.21,17.97,2.75,35.87,1.5,53.98
		c-1.08,15.65-2.17,31.28-4.49,46.78c-2.43,16.23-5.9,32.29-10.38,48.09c-7.62,26.89-17.85,52.76-31.2,77.34
		c-10.87,20.03-23.27,38.99-37.66,56.73c-11.4,14.04-23.76,27.12-36.84,39.5c-8.47,8.01-17.68,15.24-26.66,22.7
		c-1.6,1.33-3.12,1.98-5.79,0.53c-12.98-7.02-26.41-13.15-40.98-16.19c-1.97-0.41-2.42-1.61-2.83-2.88
		c-5.65-17.47-12.27-34.82-13.68-53.22c-0.95-12.41,2.25-24.18,11.05-34.19c12.35-14.06,22.78-29.42,30.32-46.83
		c4.78-11.03,10.59-21.75,19.17-30.69c4.18-4.35,8.93-5.89,14.48-5.97c7.27-0.11,14.49-0.74,21.59-2.2
		c9.2-1.89,19.28-13.46,17.83-22.59c-0.93-5.88-3.15-10.77-8.17-13.98c-6.46-4.13-13.12-7.96-19.64-12
		c-3.57-2.21-6.13-5.08-7.52-9.35c-2.06-6.34-6.94-11.05-10.93-16.23c-0.98-1.27-1.15-2.2-1-3.84c0.78-8.3,2.85-16.42,1.47-25.01
		c-2.29-14.25-17.93-15.44-25.49-9.41c-7.63,6.08-14.85,12.61-21.64,19.62c-3.43,3.54-6.91,6.95-11.33,9.45
		c-16.17,9.13-26.01,24.25-35.99,39.13c-10.84,16.16-21.68,32.3-33.83,47.51c-2.37,2.97-5.31,5.5-8.03,8.19
		C316.4,417.54,302.73,432.31,289.73,448.3z"/>
	<path class="st2" d="M512.05,647.59c-3.74,0-7.03-0.04-10.31,0.02c-1.44,0.03-3.31-0.19-3.72,1.67c-0.43,1.96,1.4,3.05,2.67,3.85
		c5.97,3.8,12.08,7.38,17.81,11.56c1.75,1.28,3.37,2.55,5.04,5.13c-6.9-1.69-13.09-3.16-19.26-4.73
		c-19.29-4.92-38.36-5.61-57.6,0.99c-17.59,6.03-35.95,5.81-54.08,3.15c-25.76-3.77-51.06-9.85-74.64-21.18
		c-32.19-15.47-51.81-40.62-56.53-76.68c-4.01-30.6,4.15-58.39,19.09-84.63c8.94-15.71,20.25-29.67,32.04-43.33
		c10.64-12.32,22.72-23.23,33.62-35.27c12.45-13.76,22.26-29.47,32.95-44.54c8.19-11.55,15.02-24.14,25.42-34.02
		c2.51-2.39,4.94-5.13,7.93-6.71c12.87-6.8,21.8-18.11,32.29-27.63c2.27-2.06,4.69-5.68,7.6-4.1c2.9,1.58,1.42,5.76,1.06,8.83
		c-0.76,6.41-1.73,12.79-3.28,19.07c-0.59,2.38-0.2,4.16,2.35,5.77c5.58,3.51,9.77,8.72,11.85,14.87
		c2.69,7.97,8.11,12.95,14.98,16.94c4.7,2.73,9.39,5.5,14,8.39c2.43,1.52,6.02,2.65,5.17,6.37c-0.76,3.31-3.44,5.59-6.74,6.65
		c-5.24,1.69-10.72,1.81-16.16,2.07c-2.15,0.1-4.3,0.31-6.45,0.36c-16.36,0.33-23.92,12.23-31.44,24.07
		c-7,11.03-11.9,23.18-17.91,34.74c-5.42,10.43-13.21,19.28-20.22,28.63c-14.55,19.42-14.88,41.2-9.94,63.56
		c3.39,15.37,9.2,30.04,14.67,44.78c0.9,2.43,2.38,3.83,4.83,4.43c28.33,7,52.51,21.76,75,39.85c8.4,6.76,16.66,13.61,24.16,21.36
		C509.77,643.44,511.15,644.98,512.05,647.59z M412.36,653.11c7.68,0.53,19.65-2.73,31.42-6.77c9.76-3.35,19.53-6.23,30-5.79
		c1.3,0.05,3.36,1,3.86-0.96c0.39-1.51-1.34-2.48-2.38-3.54c-5.13-5.22-11.33-9.04-17.3-13.14c-18.48-12.69-38.41-20.59-61.37-18.21
		c-1.07,0.11-2.55-0.63-3.13,0.7c-0.69,1.6,0.88,2.37,1.85,3.11c1.56,1.19,3.35,2.07,4.96,3.21c0.77,0.55,1.83,1.31,1.31,2.39
		c-0.29,0.59-1.31,1.05-2.07,1.16c-10.97,1.63-21.94,3.48-33,0.8c-1.43-0.35-3.22-1.09-3.97,0.38c-0.65,1.28,0.51,2.81,1.57,3.88
		c3.51,3.55,6.96,7.16,10.59,10.56c2.48,2.32,3.21,3.53-0.99,4.66c-6.67,1.81-13.09,1.21-19.54-0.67c-0.97-0.28-2.12-0.62-2.68,0.32
		c-0.6,1.01,0.4,1.81,1.07,2.53c2.04,2.23,4.64,3.72,7.28,5.03C374.82,650.21,390.89,652.54,412.36,653.11z M368.9,488.64
		c-0.02,3.66-0.27,7.33,1.39,10.74c0.68,1.41,0.84,3.58,3.05,3.33c1.85-0.21,1.8-2.03,2.13-3.48c3.16-13.74,8.82-26.09,18.62-36.57
		c16.08-17.2,27.84-37.35,34.81-59.64c5.49-17.55,22.45-28.88,39.58-28.02c4.43,0.22,8.93-0.37,13.35-0.98
		c1.86-0.26,4.92,0.29,5.05-2.71c0.1-2.46-2.54-2.81-4.35-3.32c-11.59-3.24-22.83-7.43-33.89-12.18
		c-10.74-4.61-17.83-2.27-24.77,7.29c-5.01,6.9-8.74,14.47-10.97,22.6c-6.17,22.49-16.28,42.89-29.81,61.89
		C374.49,459.68,368.88,473.32,368.9,488.64z M367.33,548.35c0.3,0,0.6,0,0.9,0c0,8.28-0.01,16.55,0,24.83
		c0,3.26,1.19,5.2,4.92,5.07c3.13-0.11,6.27,0.27,9.41,0.45c3.26,0.19,4.13-1.23,3.12-4.28c-2.37-7.21-4.49-14.5-6.96-21.67
		c-1.72-4.99-3.83-9.85-5.77-14.77c-0.68-1.72-1.48-3.94-3.48-3.66c-2.19,0.3-1.85,2.98-2.04,4.59
		C367.08,542.02,367.33,545.2,367.33,548.35z"/>
	<path class="st0" d="M412.36,653.11c-21.47-0.56-37.54-2.89-52.51-10.33c-2.64-1.31-5.24-2.8-7.28-5.03
		c-0.67-0.73-1.67-1.52-1.07-2.53c0.56-0.94,1.71-0.6,2.68-0.32c6.45,1.88,12.88,2.47,19.54,0.67c4.2-1.14,3.47-2.34,0.99-4.66
		c-3.64-3.41-7.09-7.02-10.59-10.56c-1.07-1.08-2.22-2.61-1.57-3.88c0.75-1.47,2.54-0.72,3.97-0.38c11.07,2.68,22.04,0.83,33-0.8
		c0.75-0.11,1.78-0.57,2.07-1.16c0.52-1.08-0.54-1.85-1.31-2.39c-1.6-1.14-3.4-2.02-4.96-3.21c-0.97-0.74-2.54-1.52-1.85-3.11
		c0.57-1.34,2.06-0.59,3.13-0.7c22.95-2.37,42.89,5.53,61.37,18.21c5.97,4.1,12.17,7.92,17.3,13.14c1.04,1.06,2.76,2.02,2.38,3.54
		c-0.5,1.95-2.57,1.01-3.86,0.96c-10.47-0.44-20.25,2.44-30,5.79C432,650.37,420.04,653.64,412.36,653.11z"/>
	<path class="st0" d="M368.9,488.64c-0.02-15.32,5.59-28.97,14.19-41.06c13.52-19,23.64-39.41,29.81-61.89
		c2.23-8.13,5.97-15.7,10.97-22.6c6.94-9.56,14.02-11.91,24.77-7.29c11.06,4.75,22.3,8.94,33.89,12.18
		c1.81,0.51,4.45,0.86,4.35,3.32c-0.12,3-3.19,2.46-5.05,2.71c-4.42,0.61-8.92,1.21-13.35,0.98c-17.13-0.86-34.1,10.47-39.58,28.02
		c-6.97,22.29-18.73,42.45-34.81,59.64c-9.8,10.48-15.46,22.83-18.62,36.57c-0.33,1.44-0.29,3.27-2.13,3.48
		c-2.21,0.25-2.37-1.92-3.05-3.33C368.63,495.97,368.89,492.3,368.9,488.64z"/>
	<path class="st0" d="M367.33,548.35c0-3.15-0.25-6.33,0.1-9.44c0.19-1.61-0.16-4.29,2.04-4.59c2-0.28,2.8,1.94,3.48,3.66
		c1.94,4.92,4.06,9.77,5.77,14.77c2.47,7.17,4.59,14.46,6.96,21.67c1,3.05,0.14,4.46-3.12,4.28c-3.14-0.18-6.28-0.56-9.41-0.45
		c-3.73,0.13-4.91-1.81-4.92-5.07c-0.01-8.28,0-16.55,0-24.83C367.93,548.35,367.63,548.35,367.33,548.35z"/>
</g>
</svg>
