<?xml version="1.0" encoding="utf-8"?>
<!-- Generator: Adobe Illustrator 25.2.3, SVG Export Plug-In . SVG Version: 6.00 Build 0)  -->
<svg version="1.1" xmlns="http://www.w3.org/2000/svg" xmlns:xlink="http://www.w3.org/1999/xlink" x="0px" y="0px"
	 viewBox="0 0 85 85" style="enable-background:new 0 0 85 85;" xml:space="preserve">
<style type="text/css">
	.st0{display:none;}
	.st1{display:inline;fill:#FFFFFF;}
	.st2{display:inline;}
	.st3{fill:#FFFFFF;}
</style>
<g id="Layer_1">
	<rect x="-300" class="st0" width="85" height="85"/>
	<rect x="-100" class="st0" width="85" height="85"/>
	<g class="st0">
		<path class="st1" d="M-243.53,21.8c-0.05-0.03-0.1-0.06-0.14-0.09c0,0.06-0.01,0.11-0.01,0.17
			C-243.63,21.85-243.58,21.83-243.53,21.8z"/>
		<path class="st1" d="M-278.3,56.37c0.03,0.05,0.06,0.1,0.09,0.14c0.03-0.05,0.05-0.1,0.08-0.15
			C-278.19,56.37-278.25,56.37-278.3,56.37z"/>
		<path class="st1" d="M-262.44,67.06c0.06,0.01,0.12,0.02,0.18,0.03c-0.02-0.06-0.04-0.11-0.06-0.17
			C-262.36,66.97-262.4,67.01-262.44,67.06z"/>
		<path class="st1" d="M-271.5,63.25c0.08,0.06,0.17,0.11,0.25,0.16c0.01-0.1,0.01-0.19,0.02-0.29
			C-271.32,63.16-271.41,63.2-271.5,63.25z"/>
		<path class="st1" d="M-236.6,28.79c-0.05-0.08-0.11-0.17-0.16-0.25c-0.04,0.09-0.09,0.18-0.13,0.27
			C-236.8,28.8-236.7,28.8-236.6,28.79z"/>
		<path class="st1" d="M-232.99,47.63c0.02-0.1,0.04-0.21,0.06-0.32c-0.1,0.03-0.2,0.07-0.3,0.1
			C-233.15,47.49-233.07,47.56-232.99,47.63z"/>
		<path class="st1" d="M-252.45,18.06c-0.1-0.02-0.2-0.03-0.29-0.05c0.03,0.09,0.06,0.18,0.09,0.28
			C-252.58,18.21-252.51,18.13-252.45,18.06z"/>
		<path class="st1" d="M-271.27,21.71c-0.04,0.03-0.08,0.05-0.12,0.08c0.04,0.02,0.09,0.04,0.13,0.06
			C-271.27,21.8-271.27,21.76-271.27,21.71z"/>
		<path class="st1" d="M-278.15,28.5c-0.06,0.08-0.11,0.17-0.17,0.25c0.1,0.01,0.2,0.01,0.3,0.02
			C-278.06,28.68-278.1,28.59-278.15,28.5z"/>
		<path class="st1" d="M-281.97,37.55c-0.01,0.05-0.02,0.11-0.03,0.16c0.05-0.02,0.1-0.03,0.15-0.05
			C-281.89,37.63-281.93,37.59-281.97,37.55z"/>
		<path class="st1" d="M-262.28,18.02c-0.06,0.01-0.13,0.02-0.19,0.03c0.04,0.05,0.08,0.1,0.13,0.15
			C-262.32,18.14-262.3,18.08-262.28,18.02z"/>
		<path class="st1" d="M-236.82,56.39c0.03,0.05,0.05,0.1,0.08,0.16c0.03-0.05,0.06-0.1,0.09-0.15
			C-236.71,56.39-236.77,56.39-236.82,56.39z"/>
		<path class="st1" d="M-243.76,63.46c0.09-0.06,0.19-0.12,0.28-0.18c-0.1-0.05-0.2-0.1-0.3-0.15
			C-243.77,63.24-243.77,63.35-243.76,63.46z"/>
		<path class="st1" d="M-282.03,47.23c0.02,0.11,0.04,0.22,0.06,0.32c0.08-0.07,0.16-0.15,0.25-0.22
			C-281.83,47.3-281.93,47.27-282.03,47.23z"/>
		<path class="st1" d="M-232.93,37.8c-0.01-0.08-0.03-0.16-0.04-0.23c-0.06,0.05-0.12,0.1-0.18,0.16
			C-233.08,37.75-233,37.77-232.93,37.8z"/>
		<path class="st1" d="M-252.76,67.1c0.07-0.01,0.14-0.02,0.21-0.04c-0.05-0.05-0.09-0.11-0.14-0.16
			C-252.72,66.97-252.74,67.04-252.76,67.1z"/>
		<path class="st1" d="M-257.51,17.48v0.07c0.01,0,0.02,0,0.04,0s0.02,0,0.04,0v0c0,0,0,0,0,0c1.61,0,3.17,0.16,4.7,0.45
			c-3.25-9.45-4.77-18.03-4.77-18.03s-1.52,8.59-4.77,18.04c1.54-0.3,3.14-0.46,4.77-0.47C-257.51,17.53-257.51,17.51-257.51,17.48z
			"/>
		<path class="st1" d="M-232.93,47.31c9.44-3.25,17.99-4.76,17.99-4.76s-8.56-1.51-17.99-4.76c0.3,1.54,0.46,3.13,0.46,4.76
			S-232.63,45.77-232.93,47.31z"/>
		<path class="st1" d="M-256.36,22.25c-0.69-1.48-1.07-3.04-1.07-4.7h0v5.76C-257.07,22.97-256.72,22.61-256.36,22.25z"/>
		<path class="st1" d="M-232.51,42.48c-1.63,0-3.17-0.37-4.62-1.03c-0.35,0.34-0.69,0.69-1.03,1.03H-232.51z"/>
		<path class="st1" d="M-282.47,42.48c-0.01,0-0.02,0-0.04,0L-282.47,42.48L-282.47,42.48l-0.04,0c0,0,0,0,0,0c0,0,0,0,0,0h0
			C-282.49,42.48-282.48,42.48-282.47,42.48c0-1.63,0.17-3.22,0.47-4.76c-9.44,3.25-18.01,4.76-18.01,4.76s8.55,1.51,17.98,4.75
			c-0.29-1.52-0.44-3.08-0.44-4.68C-282.47,42.53-282.47,42.51-282.47,42.48z"/>
		<path class="st1" d="M-257.51,17.55C-257.51,17.55-257.51,17.55-257.51,17.55c-0.01,1.64-0.4,3.18-1.08,4.65
			c0.36,0.36,0.72,0.72,1.08,1.07V17.55z"/>
		<path class="st1" d="M-277.84,41.42c-1.46,0.68-3,1.05-4.63,1.05c0,0,0,0,0,0h5.68C-277.14,42.12-277.48,41.77-277.84,41.42z"/>
		<path class="st1" d="M-257.43,67.55L-257.43,67.55c-0.01,0-0.02,0-0.04,0c-1.64,0-3.24-0.16-4.79-0.46
			c3.24,9.46,4.75,18.04,4.75,18.04s1.51-8.57,4.75-18.02C-254.28,67.39-255.84,67.55-257.43,67.55
			C-257.43,67.55-257.43,67.55-257.43,67.55z"/>
		<path class="st1" d="M-257.43,67.55L-257.43,67.55c0-1.62,0.37-3.15,1.03-4.6c-0.34-0.34-0.68-0.68-1.03-1.02V67.55z"/>
		<polygon class="st1" points="-232.51,42.48 -232.51,42.48 -232.51,42.48 		"/>
		<path class="st1" d="M-237.29,43.6c1.5-0.72,3.1-1.12,4.78-1.12h-5.65c-0.04,0.04-0.08,0.08-0.12,0.12
			C-237.95,42.93-237.62,43.27-237.29,43.6z"/>
		<path class="st1" d="M-276.79,42.48h-5.68c0,0,0,0,0,0c1.67,0.01,3.24,0.4,4.73,1.11c0.34-0.34,0.68-0.69,1.02-1.04
			C-276.74,42.53-276.77,42.5-276.79,42.48z"/>
		<path class="st1" d="M-257.51,67.48v-5.6c-0.34,0.33-0.68,0.67-1.02,1.01C-257.87,64.33-257.51,65.86-257.51,67.48z"/>
		<path class="st1" d="M-239.77,24.8l-0.05,0.05c0.02,0.02,0.03,0.03,0.05,0.05l0,0c0,0,0,0,0,0c1.11,1.11,2.12,2.33,3,3.64
			c4.38-8.98,9.37-16.12,9.37-16.12s-7.15,5-16.13,9.38c1.33,0.9,2.57,1.92,3.7,3.05C-239.81,24.83-239.78,24.82-239.77,24.8z"/>
		<path class="st1" d="M-243.48,63.28c8.97,4.38,16.09,9.36,16.09,9.36s-4.98-7.12-9.36-16.09
			C-238.54,59.19-240.83,61.48-243.48,63.28z"/>
		<polygon class="st1" points="-239.77,60.15 -239.77,60.15 -239.77,60.15 		"/>
		<path class="st1" d="M-239.77,60.15c-1.13-1.14-1.95-2.47-2.51-3.94c-0.48,0-0.95,0-1.43,0.01L-239.77,60.15z"/>
		<path class="st1" d="M-242.33,28.99c0.56-1.53,1.39-2.91,2.57-4.09h0l-4.08,4.08C-243.34,28.99-242.84,28.99-242.33,28.99z"/>
		<path class="st1" d="M-275.12,24.8l0.03,0.03c0,0,0,0,0,0L-275.12,24.8C-275.12,24.8-275.12,24.8-275.12,24.8
			C-275.12,24.8-275.12,24.8-275.12,24.8L-275.12,24.8c0.01,0.01,0.02,0.02,0.03,0.02c1.13-1.13,2.37-2.14,3.7-3.04
			c-8.97-4.38-16.1-9.36-16.1-9.36s4.98,7.12,9.35,16.08c0.9-1.32,1.92-2.55,3.05-3.67C-275.11,24.82-275.11,24.81-275.12,24.8z"/>
		<path class="st1" d="M-239.82,24.85C-239.82,24.85-239.82,24.85-239.82,24.85c-1.17,1.14-2.53,1.97-4.05,2.52
			c0,0.51,0,1.02,0.01,1.52L-239.82,24.85z"/>
		<path class="st1" d="M-271.09,27.35c-1.5-0.55-2.85-1.38-4.01-2.53c0,0,0,0,0,0l4,4C-271.09,28.33-271.08,27.84-271.09,27.35z"/>
		<path class="st1" d="M-275.12,60.26L-275.12,60.26c-1.14-1.14-2.18-2.39-3.09-3.74c-4.4,8.98-9.39,16.11-9.39,16.11
			s7.13-4.99,16.1-9.38C-272.8,62.36-274.01,61.36-275.12,60.26C-275.12,60.26-275.12,60.26-275.12,60.26z"/>
		<path class="st1" d="M-275.12,60.26C-275.12,60.26-275.12,60.26-275.12,60.26c1.16-1.16,2.53-2,4.06-2.56c0-0.5,0-0.99-0.01-1.49
			L-275.12,60.26z"/>
		<polygon class="st1" points="-239.77,60.15 -239.77,60.15 -239.77,60.15 		"/>
		<path class="st1" d="M-243.94,56.22c-0.01,0.45-0.01,0.89-0.01,1.34c1.57,0.56,2.99,1.4,4.18,2.59l-3.94-3.94
			C-243.78,56.22-243.86,56.22-243.94,56.22z"/>
		<path class="st1" d="M-275.12,60.15l3.96-3.96c-0.48-0.01-0.96-0.01-1.44-0.01C-273.16,57.67-273.98,59.01-275.12,60.15z"/>
		<path class="st1" d="M-271.09,28.83l-4-4c0,0,0,0,0,0c1.17,1.18,2,2.57,2.55,4.11c0.48,0,0.97,0,1.45-0.01
			C-271.09,28.9-271.09,28.86-271.09,28.83z"/>
		<path class="st1" d="M-241.27,81.87c0,0-1.87-8.47-2.49-18.41c-2.63,1.73-5.6,2.97-8.79,3.61
			C-245.95,74.54-241.27,81.87-241.27,81.87z"/>
		<path class="st1" d="M-273.76,3.24c0,0,1.88,8.5,2.49,18.47c2.63-1.74,5.6-3.01,8.8-3.66C-269.09,10.58-273.76,3.24-273.76,3.24z"
			/>
		<path class="st1" d="M-296.78,26.26c0,0,7.34,4.68,14.81,11.29c0.65-3.2,1.91-6.17,3.66-8.8
			C-288.28,28.14-296.78,26.26-296.78,26.26z"/>
		<path class="st1" d="M-273.74,81.89c0,0,4.68-7.34,11.3-14.83c-3.2-0.65-6.18-1.91-8.81-3.65
			C-271.86,73.38-273.74,81.89-273.74,81.89z"/>
		<path class="st1" d="M-296.8,58.87c0,0,8.52-1.89,18.5-2.49c-1.75-2.63-3.02-5.61-3.67-8.82
			C-289.45,54.18-296.8,58.87-296.8,58.87z"/>
		<path class="st1" d="M-218.14,26.28c0,0-8.49,1.88-18.46,2.51c1.73,2.62,2.99,5.59,3.63,8.77
			C-225.47,30.95-218.14,26.28-218.14,26.28z"/>
		<path class="st1" d="M-241.16,3.22c0,0-4.67,7.34-11.29,14.84c3.19,0.65,6.15,1.91,8.78,3.65
			C-243.05,11.73-241.16,3.22-241.16,3.22z"/>
		<path class="st1" d="M-218.21,58.89c0,0-7.31-4.66-14.77-11.26c-0.66,3.19-1.92,6.15-3.67,8.77
			C-226.7,57.01-218.21,58.89-218.21,58.89z"/>
		<path class="st1" d="M-242.29,51.13c0.69-1.21,1.23-2.51,1.62-3.88c0.31,0.89,0.63,1.78,0.98,2.67c2.13-0.92,4.32-1.76,6.46-2.5
			c-1.37-1.21-2.73-2.49-4.06-3.82c-1.04,0.5-2.03,1.15-2.99,1.93c0.17-0.98,0.28-1.99,0.28-3.02c0-0.01,0-0.01,0-0.02h1.84
			c0,0,0,0,0,0H-240c0-1.04-0.11-2.05-0.28-3.04c1,0.82,2.05,1.5,3.15,2c1.3-1.29,2.64-2.54,3.98-3.72
			c-2.17-0.75-4.39-1.6-6.56-2.54c-0.34,0.87-0.65,1.75-0.95,2.62c-0.37-1.33-0.88-2.6-1.54-3.78c0.82,0.4,1.65,0.79,2.49,1.16
			c0.86-2.18,1.82-4.32,2.81-6.37c-1.78,0.11-3.61,0.17-5.44,0.18c-0.4,1.11-0.65,2.31-0.78,3.56c-0.58-0.84-1.23-1.63-1.95-2.35
			l1.21-1.21c0,0-0.01,0-0.01,0c0-0.03,0-0.06,0-0.09l-1.25,1.25c-0.73-0.73-1.53-1.39-2.38-1.99c1.28-0.13,2.5-0.37,3.63-0.78
			c0.01-1.85,0.07-3.69,0.18-5.49c-2.08,1.01-4.25,1.98-6.46,2.86c0.37,0.84,0.76,1.66,1.16,2.48c-1.16-0.65-2.41-1.16-3.72-1.54
			c0.86-0.3,1.71-0.61,2.57-0.95c-0.92-2.13-1.76-4.31-2.5-6.45c-1.18,1.34-2.43,2.67-3.72,3.97c0.49,1.06,1.15,2.06,1.93,3.03
			c-0.98-0.17-1.97-0.28-3-0.28v-1.69c0,0-0.01,0.01-0.01,0.01c-0.02-0.02-0.04-0.04-0.06-0.06V25c-1.05,0-2.07,0.11-3.06,0.29
			c0.8-0.98,1.48-2.01,1.98-3.08c-1.3-1.31-2.56-2.66-3.75-4c-0.75,2.15-1.58,4.34-2.51,6.49c0.87,0.35,1.75,0.67,2.63,0.97
			c-1.34,0.38-2.62,0.9-3.81,1.57c0.4-0.84,0.81-1.68,1.18-2.54c-2.19-0.87-4.35-1.84-6.41-2.84c0.11,1.8,0.17,3.65,0.18,5.5
			c1.12,0.41,2.33,0.66,3.6,0.79c-0.84,0.58-1.62,1.23-2.34,1.95l-1.26-1.26c0,0,0,0,0,0l1.26,1.26c-0.72,0.71-1.37,1.5-1.96,2.33
			c-0.13-1.22-0.37-2.39-0.75-3.48c-1.84,0-3.68-0.06-5.47-0.17c0.99,2.04,1.94,4.17,2.8,6.33c0.83-0.36,1.64-0.75,2.45-1.14
			c-0.64,1.15-1.16,2.38-1.53,3.67c-0.3-0.84-0.59-1.69-0.92-2.53c-2.19,0.95-4.43,1.8-6.63,2.56c1.35,1.2,2.7,2.45,4.01,3.76
			c1.09-0.5,2.13-1.18,3.12-1.99c-0.18,0.99-0.28,2.01-0.28,3.05h-1.79l0,0h1.79c0,0.01,0,0.01,0,0.02c0,1.04,0.11,2.05,0.28,3.03
			c-0.96-0.79-1.97-1.45-3.02-1.95c-1.3,1.3-2.64,2.56-3.98,3.75c2.15,0.75,4.34,1.58,6.48,2.51c0.33-0.84,0.63-1.69,0.93-2.54
			c0.37,1.29,0.88,2.53,1.52,3.68c-0.81-0.39-1.62-0.78-2.45-1.14c-0.88,2.23-1.87,4.42-2.89,6.51c1.81-0.11,3.67-0.17,5.53-0.17
			c0.42-1.12,0.68-2.33,0.82-3.6c0.58,0.82,1.22,1.6,1.93,2.3l-1.31,1.31c0.03,0,0.06,0,0.09,0c0,0,0,0.01,0,0.01l1.27-1.27
			c0.73,0.72,1.53,1.38,2.38,1.97c-1.29,0.13-2.51,0.38-3.64,0.79c0,1.82-0.07,3.64-0.17,5.42c2.05-1,4.19-1.96,6.37-2.82
			c-0.37-0.86-0.77-1.69-1.17-2.53c1.18,0.66,2.45,1.18,3.77,1.56c-0.87,0.31-1.74,0.63-2.6,0.97c0.95,2.19,1.8,4.43,2.55,6.63
			c1.2-1.36,2.47-2.71,3.79-4.03c-0.5-1.1-1.18-2.16-2-3.17c0.98,0.17,1.99,0.28,3.02,0.28v1.88c0,0,0.01-0.01,0.01-0.01
			c0.02,0.02,0.04,0.04,0.06,0.06V60c1.06,0,2.1-0.11,3.1-0.3c-0.85,1.03-1.56,2.11-2.08,3.25c1.29,1.3,2.53,2.63,3.71,3.96
			c0.75-2.18,1.6-4.41,2.54-6.59c-0.89-0.35-1.78-0.66-2.67-0.97c1.36-0.38,2.65-0.9,3.85-1.57c-0.4,0.84-0.81,1.68-1.18,2.54
			c2.18,0.86,4.32,1.82,6.37,2.81c-0.11-1.82-0.17-3.7-0.17-5.57c-1.09-0.39-2.26-0.63-3.49-0.75c0.84-0.59,1.64-1.25,2.36-1.98
			l1.38,1.38c0,0,0,0,0,0l-1.38-1.38c0.73-0.73,1.39-1.53,1.97-2.38c0.13,1.33,0.4,2.59,0.84,3.76c1.84,0.01,3.67,0.07,5.45,0.18
			c-1.01-2.08-1.99-4.26-2.86-6.47C-240.57,50.3-241.43,50.71-242.29,51.13z"/>
	</g>
	<g class="st0">
		<g class="st2">
			<path class="st3" d="M-243.53,21.8c-0.05-0.03-0.1-0.06-0.14-0.09c0,0.06-0.01,0.11-0.01,0.17
				C-243.63,21.85-243.58,21.83-243.53,21.8z"/>
			<path class="st3" d="M-278.3,56.37c0.03,0.05,0.06,0.1,0.09,0.14c0.03-0.05,0.05-0.1,0.08-0.15
				C-278.19,56.37-278.25,56.37-278.3,56.37z"/>
			<path class="st3" d="M-262.44,67.06c0.06,0.01,0.12,0.02,0.18,0.03c-0.02-0.06-0.04-0.11-0.06-0.17
				C-262.36,66.97-262.4,67.01-262.44,67.06z"/>
			<path class="st3" d="M-271.5,63.25c0.08,0.06,0.17,0.11,0.25,0.16c0.01-0.1,0.01-0.19,0.02-0.29
				C-271.32,63.16-271.41,63.2-271.5,63.25z"/>
			<path class="st3" d="M-236.6,28.79c-0.05-0.08-0.11-0.17-0.16-0.25c-0.04,0.09-0.09,0.18-0.13,0.27
				C-236.8,28.8-236.7,28.8-236.6,28.79z"/>
			<path class="st3" d="M-232.99,47.63c0.02-0.1,0.04-0.21,0.06-0.32c-0.1,0.03-0.2,0.07-0.3,0.1
				C-233.15,47.49-233.07,47.56-232.99,47.63z"/>
			<path class="st3" d="M-252.45,18.06c-0.1-0.02-0.2-0.03-0.29-0.05c0.03,0.09,0.06,0.18,0.09,0.28
				C-252.58,18.21-252.51,18.13-252.45,18.06z"/>
			<path class="st3" d="M-271.27,21.71c-0.04,0.03-0.08,0.05-0.12,0.08c0.04,0.02,0.09,0.04,0.13,0.06
				C-271.27,21.8-271.27,21.76-271.27,21.71z"/>
			<path class="st3" d="M-278.15,28.5c-0.06,0.08-0.11,0.17-0.17,0.25c0.1,0.01,0.2,0.01,0.3,0.02
				C-278.06,28.68-278.1,28.59-278.15,28.5z"/>
			<path class="st3" d="M-281.97,37.55c-0.01,0.05-0.02,0.11-0.03,0.16c0.05-0.02,0.1-0.03,0.15-0.05
				C-281.89,37.63-281.93,37.59-281.97,37.55z"/>
			<path class="st3" d="M-262.28,18.02c-0.06,0.01-0.13,0.02-0.19,0.03c0.04,0.05,0.08,0.1,0.13,0.15
				C-262.32,18.14-262.3,18.08-262.28,18.02z"/>
			<path class="st3" d="M-236.82,56.39c0.03,0.05,0.05,0.1,0.08,0.16c0.03-0.05,0.06-0.1,0.09-0.15
				C-236.71,56.39-236.77,56.39-236.82,56.39z"/>
			<path class="st3" d="M-243.76,63.46c0.09-0.06,0.19-0.12,0.28-0.18c-0.1-0.05-0.2-0.1-0.3-0.15
				C-243.77,63.24-243.77,63.35-243.76,63.46z"/>
			<path class="st3" d="M-282.03,47.23c0.02,0.11,0.04,0.22,0.06,0.32c0.08-0.07,0.16-0.15,0.25-0.22
				C-281.83,47.3-281.93,47.27-282.03,47.23z"/>
			<path class="st3" d="M-232.93,37.8c-0.01-0.08-0.03-0.16-0.04-0.23c-0.06,0.05-0.12,0.1-0.18,0.16
				C-233.08,37.75-233,37.77-232.93,37.8z"/>
			<path class="st3" d="M-252.76,67.1c0.07-0.01,0.14-0.02,0.21-0.04c-0.05-0.05-0.09-0.11-0.14-0.16
				C-252.72,66.97-252.74,67.04-252.76,67.1z"/>
			<path class="st3" d="M-257.51,17.48v0.07c0.01,0,0.02,0,0.04,0s0.02,0,0.04,0v0c0,0,0,0,0,0c1.61,0,3.17,0.16,4.7,0.45
				c-3.25-9.45-4.77-18.03-4.77-18.03s-1.52,8.59-4.77,18.04c1.54-0.3,3.14-0.46,4.77-0.47C-257.51,17.53-257.51,17.51-257.51,17.48
				z"/>
			<path class="st3" d="M-232.93,47.31c9.44-3.25,17.99-4.76,17.99-4.76s-8.56-1.51-17.99-4.76c0.3,1.54,0.46,3.13,0.46,4.76
				S-232.63,45.77-232.93,47.31z"/>
			<path class="st3" d="M-256.36,22.25c-0.69-1.48-1.07-3.04-1.07-4.7h0v5.76C-257.07,22.97-256.72,22.61-256.36,22.25z"/>
			<polygon class="st3" points="-232.51,42.48 -232.51,42.48 -232.51,42.48 			"/>
			<path class="st3" d="M-238.16,42.48h5.65c-1.63,0-3.17-0.37-4.62-1.03C-237.48,41.79-237.82,42.13-238.16,42.48z"/>
			<path class="st3" d="M-282.47,42.48c-0.01,0-0.02,0-0.04,0h0c0,0,0,0,0,0c0,0,0,0,0,0h0C-282.49,42.48-282.48,42.48-282.47,42.48
				c0-1.63,0.17-3.22,0.47-4.76c-9.44,3.25-18.01,4.76-18.01,4.76s8.55,1.51,17.98,4.75c-0.29-1.52-0.44-3.08-0.44-4.68
				C-282.47,42.53-282.47,42.51-282.47,42.48z"/>
			<path class="st3" d="M-257.51,23.27v-5.72c0,0,0,0,0,0c-0.01,1.64-0.39,3.18-1.08,4.65C-258.23,22.56-257.87,22.92-257.51,23.27z
				"/>
			<path class="st3" d="M-276.79,42.48c-0.34-0.36-0.69-0.71-1.05-1.06c-1.46,0.68-3,1.05-4.63,1.05c0,0,0,0,0,0H-276.79z"/>
			<path class="st3" d="M-257.43,67.55L-257.43,67.55c-0.01,0-0.02,0-0.04,0c-1.64,0-3.24-0.16-4.79-0.46
				c3.24,9.46,4.75,18.04,4.75,18.04s1.51-8.57,4.75-18.02C-254.28,67.39-255.84,67.55-257.43,67.55
				C-257.43,67.55-257.43,67.55-257.43,67.55z"/>
			<path class="st3" d="M-257.43,61.93v5.62h0c0-1.62,0.37-3.15,1.03-4.6C-256.75,62.61-257.09,62.27-257.43,61.93z"/>
			<polygon class="st3" points="-232.51,42.48 -232.51,42.48 -232.51,42.48 			"/>
			<path class="st3" d="M-238.27,42.6c0.32,0.34,0.65,0.67,0.98,1c1.5-0.72,3.1-1.12,4.78-1.12h-5.65
				C-238.2,42.52-238.24,42.56-238.27,42.6z"/>
			<path class="st3" d="M-276.72,42.55c-0.02-0.02-0.05-0.05-0.07-0.07h-5.68c0,0,0,0,0,0c1.67,0.01,3.24,0.4,4.73,1.11
				C-277.4,43.25-277.06,42.9-276.72,42.55z"/>
			<path class="st3" d="M-258.53,62.89c0.66,1.45,1.02,2.98,1.02,4.59v-5.6C-257.85,62.21-258.19,62.55-258.53,62.89z"/>
			<polygon class="st3" points="-282.47,42.48 -282.51,42.48 -282.51,42.48 -282.51,42.48 -282.47,42.48 			"/>
			<path class="st3" d="M-239.77,24.8l-0.05,0.05c0.02,0.02,0.03,0.03,0.05,0.05l0,0c0,0,0,0,0,0c1.11,1.11,2.12,2.33,3,3.64
				c4.38-8.98,9.37-16.12,9.37-16.12s-7.15,5-16.13,9.38c1.33,0.9,2.57,1.92,3.7,3.05C-239.81,24.83-239.78,24.82-239.77,24.8z"/>
			<path class="st3" d="M-243.48,63.28c8.97,4.38,16.09,9.36,16.09,9.36s-4.98-7.12-9.36-16.09
				C-238.54,59.19-240.83,61.48-243.48,63.28z"/>
			<polygon class="st3" points="-239.77,60.15 -239.77,60.15 -239.77,60.15 			"/>
			<path class="st3" d="M-243.7,56.22l3.94,3.94c-1.13-1.14-1.95-2.47-2.51-3.94C-242.75,56.21-243.23,56.21-243.7,56.22z"/>
			<path class="st3" d="M-242.33,28.99c0.56-1.53,1.39-2.91,2.57-4.09h0l-4.08,4.08C-243.34,28.99-242.84,28.99-242.33,28.99z"/>
			<path class="st3" d="M-275.1,24.83c-0.01-0.01-0.02-0.02-0.02-0.03l0,0c0,0,0,0,0,0c0,0,0,0,0,0l0,0
				C-275.11,24.81-275.1,24.81-275.1,24.83c1.14-1.13,2.38-2.15,3.71-3.04c-8.97-4.38-16.1-9.36-16.1-9.36s4.98,7.12,9.35,16.08
				C-277.25,27.18-276.23,25.95-275.1,24.83z"/>
			<path class="st3" d="M-243.86,28.89l4.04-4.04c0,0,0,0,0,0c-1.16,1.15-2.53,1.97-4.04,2.52
				C-243.87,27.88-243.87,28.38-243.86,28.89z"/>
			<path class="st3" d="M-271.09,28.83c0.01-0.49,0.01-0.98,0.01-1.48c-1.5-0.55-2.85-1.38-4.01-2.53c0,0,0,0,0,0L-271.09,28.83z"/>
			<path class="st3" d="M-275.12,60.26L-275.12,60.26c-1.14-1.14-2.18-2.39-3.09-3.74c-4.4,8.98-9.39,16.11-9.39,16.11
				s7.13-4.99,16.1-9.38C-272.8,62.36-274.01,61.36-275.12,60.26C-275.12,60.26-275.12,60.26-275.12,60.26z"/>
			<path class="st3" d="M-271.07,56.21l-4.05,4.05c0,0,0,0,0,0c1.16-1.16,2.53-2,4.06-2.56C-271.06,57.2-271.07,56.71-271.07,56.21z
				"/>
			<polygon class="st3" points="-239.77,60.15 -239.77,60.15 -239.77,60.15 			"/>
			<path class="st3" d="M-243.94,56.22c-0.01,0.45-0.01,0.89-0.01,1.34c1.57,0.56,2.99,1.4,4.18,2.59l-3.94-3.94
				C-243.78,56.22-243.86,56.22-243.94,56.22z"/>
			<path class="st3" d="M-272.6,56.19c-0.56,1.49-1.38,2.82-2.52,3.96l3.96-3.96C-271.64,56.19-272.12,56.19-272.6,56.19z"/>
			<path class="st3" d="M-271.09,28.93c0-0.03,0-0.07,0-0.1l-4-4c0,0,0,0,0,0c1.17,1.18,2,2.57,2.55,4.11
				C-272.06,28.94-271.58,28.94-271.09,28.93z"/>
			<polygon class="st3" points="-275.1,24.83 -275.12,24.8 -275.12,24.8 -275.12,24.8 -275.1,24.83 			"/>
			<path class="st3" d="M-241.27,81.87c0,0-1.87-8.47-2.49-18.41c-2.63,1.73-5.6,2.97-8.79,3.61
				C-245.95,74.54-241.27,81.87-241.27,81.87z"/>
			<path class="st3" d="M-273.76,3.24c0,0,1.88,8.5,2.49,18.47c2.63-1.74,5.6-3.01,8.8-3.66C-269.09,10.58-273.76,3.24-273.76,3.24z
				"/>
			<path class="st3" d="M-296.78,26.26c0,0,7.34,4.68,14.81,11.29c0.65-3.2,1.91-6.17,3.66-8.8
				C-288.28,28.14-296.78,26.26-296.78,26.26z"/>
			<path class="st3" d="M-273.74,81.89c0,0,4.68-7.34,11.3-14.83c-3.2-0.65-6.18-1.91-8.81-3.65
				C-271.86,73.38-273.74,81.89-273.74,81.89z"/>
			<path class="st3" d="M-296.8,58.87c0,0,8.52-1.89,18.5-2.49c-1.75-2.63-3.02-5.61-3.67-8.82
				C-289.45,54.18-296.8,58.87-296.8,58.87z"/>
			<path class="st3" d="M-218.14,26.28c0,0-8.49,1.88-18.46,2.51c1.73,2.62,2.99,5.59,3.63,8.77
				C-225.47,30.95-218.14,26.28-218.14,26.28z"/>
			<path class="st3" d="M-241.16,3.22c0,0-4.67,7.34-11.29,14.84c3.19,0.65,6.15,1.91,8.78,3.65
				C-243.05,11.73-241.16,3.22-241.16,3.22z"/>
			<path class="st3" d="M-218.21,58.89c0,0-7.31-4.66-14.77-11.26c-0.66,3.19-1.92,6.15-3.67,8.77
				C-226.7,57.01-218.21,58.89-218.21,58.89z"/>
			<path class="st3" d="M-257.43,27.13v-3.81c0,0-0.01,0.01-0.01,0.01c-0.02-0.02-0.04-0.04-0.06-0.06v3.84
				c0.02,0.01,0.04,0.01,0.06,0.02C-257.44,27.13-257.44,27.13-257.43,27.13z"/>
			<path class="st3" d="M-250.14,24.73c-0.92-2.13-1.76-4.31-2.5-6.45c-1.18,1.34-2.43,2.67-3.72,3.97c0.62,1.34,1.5,2.6,2.58,3.8
				C-252.57,25.65-251.35,25.21-250.14,24.73z"/>
			<path class="st3" d="M-258.59,22.2c-1.3-1.31-2.56-2.66-3.75-4c-0.75,2.15-1.58,4.34-2.51,6.49c1.21,0.48,2.44,0.93,3.66,1.33
				C-260.11,24.82-259.22,23.55-258.59,22.2z"/>
			<path class="st3" d="M-239.69,49.92c2.13-0.92,4.32-1.76,6.46-2.5c-1.37-1.21-2.73-2.49-4.06-3.82
				c-1.32,0.63-2.57,1.51-3.75,2.58C-240.63,47.43-240.18,48.68-239.69,49.92z"/>
			<path class="st3" d="M-237.13,41.45c1.3-1.29,2.64-2.54,3.98-3.72c-2.17-0.75-4.39-1.6-6.56-2.54c-0.48,1.21-0.92,2.42-1.32,3.64
				C-239.8,39.92-238.5,40.82-237.13,41.45z"/>
			<path class="st3" d="M-277.74,43.59c-1.3,1.3-2.64,2.56-3.98,3.75c2.15,0.75,4.34,1.58,6.48,2.51c0.48-1.2,0.92-2.42,1.32-3.63
				C-275.12,45.12-276.39,44.23-277.74,43.59z"/>
			<path class="st3" d="M-275.22,35.1c-2.19,0.95-4.43,1.8-6.63,2.56c1.35,1.2,2.7,2.45,4.01,3.76c1.39-0.64,2.7-1.56,3.94-2.69
				C-274.3,37.52-274.74,36.3-275.22,35.1z"/>
			<path class="st3" d="M-257.51,57.91v3.97c0,0,0.01-0.01,0.01-0.01c0.02,0.02,0.04,0.04,0.06,0.06v-4
				C-257.46,57.92-257.48,57.92-257.51,57.91z"/>
			<path class="st3" d="M-256.41,62.95c1.29,1.3,2.53,2.63,3.71,3.96c0.75-2.18,1.6-4.41,2.54-6.59c-1.19-0.47-2.39-0.91-3.59-1.3
				C-254.87,60.25-255.77,61.56-256.41,62.95z"/>
			<polygon class="st3" points="-238.16,42.48 -238.16,42.48 -242.1,42.48 -242.1,42.48 			"/>
			<path class="st3" d="M-264.87,60.3c0.95,2.19,1.8,4.43,2.55,6.63c1.2-1.36,2.47-2.71,3.79-4.03c-0.63-1.39-1.54-2.7-2.65-3.94
				C-262.42,59.36-263.65,59.81-264.87,60.3z"/>
			<polygon class="st3" points="-276.79,42.48 -276.79,42.48 -272.81,42.48 -272.81,42.48 			"/>
			<path class="st3" d="M-246.58,31.71l2.73-2.73c0,0-0.01,0-0.01,0c0-0.03,0-0.06,0-0.09l-2.78,2.78c0,0,0,0.01,0.01,0.01
				C-246.62,31.69-246.6,31.7-246.58,31.71z"/>
			<path class="st3" d="M-239.7,35.18c0.86-2.18,1.82-4.32,2.81-6.37c-1.78,0.11-3.61,0.17-5.44,0.18c-0.51,1.4-0.78,2.94-0.86,4.57
				C-242.06,34.13-240.89,34.67-239.7,35.18z"/>
			<path class="st3" d="M-242.1,42.48c0.31-1.21,0.67-2.44,1.08-3.66c-0.73-0.66-1.43-1.38-2.11-2.17c0.15,1.88,0.5,3.84,1.01,5.83
				H-242.1z"/>
			<path class="st3" d="M-257.35,42.48l10.74-10.74c-0.01-0.02-0.02-0.04-0.03-0.06c0,0-0.01,0-0.01-0.01l-10.79,10.79v0.02H-257.35
				z"/>
			<rect x="-257.44" y="42.48" class="st3" width="0.01" height="0"/>
			<polygon class="st3" points="-257.43,42.49 -257.39,42.53 -257.35,42.48 -257.43,42.48 			"/>
			<path class="st3" d="M-242.11,42.53c0-0.02,0.01-0.03,0.01-0.05h-0.02C-242.12,42.5-242.11,42.51-242.11,42.53z"/>
			<path class="st3" d="M-243.87,27.37c0.01-1.85,0.07-3.69,0.18-5.49c-2.08,1.01-4.25,1.98-6.46,2.86c0.51,1.19,1.06,2.36,1.63,3.5
				C-246.86,28.16-245.29,27.89-243.87,27.37z"/>
			<path class="st3" d="M-251.63,28.15c-0.79-0.67-1.51-1.37-2.16-2.1c-1.22,0.41-2.44,0.76-3.65,1.07v0.01
				C-255.45,27.64-253.5,27.99-251.63,28.15z"/>
			<path class="st3" d="M-250.16,60.32c2.18,0.86,4.32,1.82,6.37,2.81c-0.11-1.82-0.17-3.7-0.17-5.57c-1.4-0.49-2.92-0.76-4.54-0.83
				C-249.08,57.9-249.63,59.1-250.16,60.32z"/>
			<path class="st3" d="M-257.43,57.93c1.22,0.31,2.45,0.67,3.68,1.08c0.69-0.77,1.46-1.51,2.31-2.22
				c-1.93,0.15-3.94,0.52-5.99,1.04V57.93z"/>
			<path class="st3" d="M-257.61,57.88c0.03,0.01,0.07,0.02,0.1,0.03v-0.05C-257.54,57.87-257.58,57.88-257.61,57.88z"/>
			<path class="st3" d="M-243.19,51.55c0.09,1.66,0.37,3.23,0.91,4.66c1.84,0.01,3.67,0.07,5.45,0.18
				c-1.01-2.08-1.99-4.26-2.86-6.47C-240.87,50.43-242.05,50.98-243.19,51.55z"/>
			<path class="st3" d="M-243.12,48.33c0.67-0.78,1.36-1.5,2.08-2.15c-0.4-1.22-0.76-2.44-1.07-3.65
				C-242.61,44.51-242.97,46.46-243.12,48.33z"/>
			<path class="st3" d="M-243.12,48.33c-1.25,1.47-2.42,3.15-3.5,4.97l0.08,0.08c1.08-0.64,2.2-1.25,3.36-1.83
				C-243.24,50.51-243.22,49.43-243.12,48.33z"/>
			<path class="st3" d="M-243.13,36.65c-0.09-1.06-0.11-2.09-0.06-3.09c-1.17-0.58-2.3-1.2-3.39-1.84l-0.02,0.02
				C-245.53,33.53-244.37,35.19-243.13,36.65z"/>
			<polygon class="st3" points="-242.12,42.48 -242.12,42.48 -257.35,42.48 -257.35,42.48 			"/>
			<path class="st3" d="M-272.54,28.94c-1.84,0-3.68-0.06-5.47-0.17c0.99,2.04,1.94,4.17,2.8,6.33c1.19-0.52,2.37-1.06,3.51-1.64
				C-271.78,31.85-272.05,30.33-272.54,28.94z"/>
			<path class="st3" d="M-273.9,38.73c0.41,1.24,0.78,2.48,1.09,3.71c0.52-2.03,0.88-4.02,1.03-5.92
				C-272.45,37.32-273.16,38.06-273.9,38.73z"/>
			<path class="st3" d="M-264.85,24.69c-2.19-0.87-4.35-1.84-6.41-2.84c0.11,1.8,0.17,3.65,0.18,5.5c1.41,0.52,2.96,0.79,4.59,0.87
				C-265.92,27.07-265.37,25.89-264.85,24.69z"/>
			<path class="st3" d="M-257.51,27.11c-1.22-0.31-2.45-0.68-3.69-1.09c-0.67,0.74-1.41,1.45-2.22,2.14c1.9-0.15,3.88-0.51,5.9-1.02
				V27.11z"/>
			<path class="st3" d="M-257.43,42.46V27.13c0,0-0.01,0-0.01,0c-0.02,0.01-0.04,0.01-0.06,0.02v15.27l0.06,0.06L-257.43,42.46z"/>
			<path class="st3" d="M-246.64,31.67c-0.66-1.1-1.28-2.26-1.87-3.44c-1,0.05-2.05,0.01-3.11-0.08
				C-250.16,29.41-248.47,30.59-246.64,31.67L-246.64,31.67z"/>
			<path class="st3" d="M-263.41,28.16c-1.06,0.09-2.09,0.11-3.08,0.06c-0.58,1.16-1.19,2.29-1.83,3.37l0.02,0.02
				C-266.52,30.55-264.86,29.4-263.41,28.16z"/>
			<path class="st3" d="M-268.34,53.38l-2.82,2.82c0.03,0,0.06,0,0.09,0c0,0,0,0.01,0,0.01l2.77-2.77
				C-268.32,53.42-268.33,53.4-268.34,53.38z"/>
			<path class="st3" d="M-271.07,57.7c0,1.82-0.07,3.64-0.17,5.42c2.05-1,4.19-1.96,6.37-2.82c-0.51-1.17-1.04-2.33-1.6-3.46
				C-268.11,56.91-269.66,57.18-271.07,57.7z"/>
			
				<rect x="-257.44" y="42.48" transform="matrix(0.7071 -0.7071 0.7071 0.7071 -105.4418 -169.5988)" class="st3" width="0" height="0.01"/>
			<polygon class="st3" points="-257.43,42.55 -257.43,42.57 -257.39,42.53 -257.43,42.49 			"/>
			<path class="st3" d="M-261.18,58.95c1.2-0.4,2.39-0.76,3.57-1.06c-1.94-0.49-3.85-0.83-5.68-0.98
				C-262.53,57.56-261.82,58.24-261.18,58.95z"/>
			<path class="st3" d="M-268.32,53.35c0.02,0.01,0.04,0.03,0.07,0.04l10.74-10.74v-0.1L-268.32,53.35z"/>
			
				<rect x="-257.44" y="42.47" transform="matrix(0.7071 -0.7071 0.7071 0.7071 -105.4396 -169.5979)" class="st3" width="0" height="0.01"/>
			
				<rect x="-257.44" y="42.48" transform="matrix(0.7071 -0.7071 0.7071 0.7071 -105.4418 -169.5925)" class="st3" width="0" height="0.01"/>
			<path class="st3" d="M-257.51,42.64v15.22c0.02-0.01,0.05-0.01,0.07-0.02V42.57l-0.01,0.01L-257.51,42.64z"/>
			<path class="st3" d="M-248.49,56.73c0.56-1.12,1.15-2.2,1.76-3.25c-1.72,1.03-3.31,2.13-4.71,3.31
				C-250.43,56.72-249.45,56.69-248.49,56.73z"/>
			<path class="st3" d="M-268.31,53.44c0.64,1.09,1.25,2.22,1.83,3.39c1.03-0.05,2.09-0.02,3.18,0.07
				c-1.47-1.26-3.14-2.43-4.96-3.52L-268.31,53.44z"/>
			<path class="st3" d="M-246.73,53.48c0.06-0.04,0.12-0.07,0.19-0.11l-0.08-0.08C-246.66,53.36-246.7,53.42-246.73,53.48z"/>
			<polygon class="st3" points="-243.7,56.22 -243.7,56.22 -246.55,53.37 -246.55,53.37 			"/>
			<polygon class="st3" points="-257.39,42.53 -257.39,42.53 -246.62,53.3 -246.62,53.3 			"/>
			<path class="st3" d="M-275.24,49.85c-0.88,2.23-1.87,4.42-2.89,6.51c1.81-0.11,3.67-0.17,5.53-0.17
				c0.54-1.43,0.82-3.01,0.91-4.69C-272.85,50.92-274.04,50.37-275.24,49.85z"/>
			<path class="st3" d="M-272.8,42.44c0,0.01-0.01,0.03-0.01,0.04h0.02C-272.79,42.47-272.8,42.45-272.8,42.44z"/>
			<path class="st3" d="M-272.81,42.48c-0.32,1.24-0.69,2.49-1.11,3.74c0.75,0.68,1.47,1.44,2.17,2.27
				c-0.15-1.93-0.51-3.95-1.04-6.01H-272.81z"/>
			<polygon class="st3" points="-257.44,42.48 -257.51,42.41 -257.51,42.48 -257.45,42.48 			"/>
			<path class="st3" d="M-268.33,31.59c-0.01,0.01-0.02,0.03-0.02,0.04c0.01-0.01,0.03-0.02,0.04-0.02L-268.33,31.59z"/>
			<path class="st3" d="M-271.7,51.5c1.14,0.57,2.25,1.17,3.31,1.8c-1.04-1.75-2.16-3.38-3.37-4.82
				C-271.67,49.52-271.65,50.53-271.7,51.5z"/>
			<path class="st3" d="M-271.71,33.46c0.05,0.98,0.02,2-0.06,3.05c1.22-1.45,2.36-3.1,3.42-4.88
				C-269.43,32.27-270.55,32.88-271.71,33.46z"/>
			<polygon class="st3" points="-257.51,42.48 -257.51,42.54 -257.45,42.48 			"/>
			<path class="st3" d="M-268.39,53.31c0.01,0.02,0.03,0.05,0.04,0.07l0.03-0.03C-268.34,53.33-268.36,53.32-268.39,53.31z"/>
			
				<rect x="-272.79" y="42.48" transform="matrix(0.7071 -0.7071 0.7071 0.7071 -107.6984 -175.0466)" class="st3" width="15.28" height="0"/>
			<polygon class="st3" points="-268.33,31.59 -271.09,28.83 -271.09,28.83 -268.33,31.59 			"/>
			<polygon class="st3" points="-257.51,42.41 -268.31,31.61 -268.31,31.61 -257.51,42.41 			"/>
		</g>
		<circle class="st1" cx="-257.5" cy="42.5" r="17.5"/>
	</g>
	<g class="st0">
		<path class="st1" d="M-143.52,21.8c-0.05-0.03-0.1-0.06-0.14-0.09c0,0.06-0.01,0.11-0.01,0.17
			C-143.63,21.85-143.57,21.83-143.52,21.8z"/>
		<path class="st1" d="M-178.3,56.37c0.03,0.05,0.06,0.1,0.09,0.14c0.03-0.05,0.05-0.1,0.08-0.15
			C-178.19,56.37-178.24,56.37-178.3,56.37z"/>
		<path class="st1" d="M-162.43,67.06c0.06,0.01,0.12,0.02,0.18,0.03c-0.02-0.06-0.04-0.11-0.06-0.17
			C-162.35,66.97-162.39,67.01-162.43,67.06z"/>
		<path class="st1" d="M-171.5,63.25c0.08,0.06,0.17,0.11,0.25,0.16c0.01-0.1,0.01-0.19,0.02-0.29
			C-171.32,63.16-171.41,63.2-171.5,63.25z"/>
		<path class="st1" d="M-136.6,28.79c-0.05-0.08-0.11-0.17-0.16-0.25c-0.04,0.09-0.09,0.18-0.13,0.27
			C-136.79,28.8-136.7,28.8-136.6,28.79z"/>
		<path class="st1" d="M-132.98,47.63c0.02-0.1,0.04-0.21,0.06-0.32c-0.1,0.03-0.2,0.07-0.3,0.1
			C-133.14,47.49-133.06,47.56-132.98,47.63z"/>
		<path class="st1" d="M-152.44,18.06c-0.1-0.02-0.2-0.03-0.29-0.05c0.03,0.09,0.06,0.18,0.09,0.28
			C-152.57,18.21-152.51,18.13-152.44,18.06z"/>
		<path class="st1" d="M-171.27,21.71c-0.04,0.03-0.08,0.05-0.12,0.08c0.04,0.02,0.09,0.04,0.13,0.06
			C-171.26,21.8-171.27,21.76-171.27,21.71z"/>
		<path class="st1" d="M-178.14,28.5c-0.06,0.08-0.11,0.17-0.17,0.25c0.1,0.01,0.2,0.01,0.3,0.02
			C-178.06,28.68-178.1,28.59-178.14,28.5z"/>
		<path class="st1" d="M-181.97,37.55c-0.01,0.05-0.02,0.11-0.03,0.16c0.05-0.02,0.1-0.03,0.15-0.05
			C-181.88,37.63-181.92,37.59-181.97,37.55z"/>
		<path class="st1" d="M-162.28,18.02c-0.06,0.01-0.13,0.02-0.19,0.03c0.04,0.05,0.08,0.1,0.13,0.15
			C-162.32,18.14-162.3,18.08-162.28,18.02z"/>
		<path class="st1" d="M-136.82,56.39c0.03,0.05,0.05,0.1,0.08,0.16c0.03-0.05,0.06-0.1,0.09-0.15
			C-136.71,56.39-136.76,56.39-136.82,56.39z"/>
		<path class="st1" d="M-143.76,63.46c0.09-0.06,0.19-0.12,0.28-0.18c-0.1-0.05-0.2-0.1-0.3-0.15
			C-143.77,63.24-143.76,63.35-143.76,63.46z"/>
		<path class="st1" d="M-182.02,47.23c0.02,0.11,0.04,0.22,0.06,0.32c0.08-0.07,0.16-0.15,0.25-0.22
			C-181.82,47.3-181.92,47.27-182.02,47.23z"/>
		<path class="st1" d="M-132.92,37.8c-0.01-0.08-0.03-0.16-0.04-0.23c-0.06,0.05-0.12,0.1-0.18,0.16
			C-133.07,37.75-133,37.77-132.92,37.8z"/>
		<path class="st1" d="M-152.76,67.1c0.07-0.01,0.14-0.02,0.21-0.04c-0.05-0.05-0.09-0.11-0.14-0.16
			C-152.71,66.97-152.73,67.04-152.76,67.1z"/>
		<path class="st1" d="M-157.5,17.48v0.07c0.01,0,0.02,0,0.04,0s0.02,0,0.04,0v0c0,0,0,0,0,0c1.61,0,3.17,0.16,4.7,0.45
			c-3.25-9.45-4.77-18.03-4.77-18.03s-1.52,8.59-4.77,18.04c1.54-0.3,3.14-0.46,4.77-0.47C-157.51,17.53-157.5,17.51-157.5,17.48z"
			/>
		<path class="st1" d="M-132.92,47.31c9.44-3.25,17.99-4.76,17.99-4.76s-8.56-1.51-17.99-4.76c0.3,1.54,0.46,3.13,0.46,4.76
			S-132.63,45.77-132.92,47.31z"/>
		<path class="st1" d="M-156.36,22.25c-0.69-1.48-1.07-3.04-1.07-4.7h0v5.76C-157.07,22.97-156.71,22.61-156.36,22.25z"/>
		<path class="st1" d="M-132.51,42.48c-1.63,0-3.17-0.37-4.62-1.03c-0.35,0.34-0.69,0.69-1.03,1.03H-132.51z"/>
		<path class="st1" d="M-182.47,42.48c-0.01,0-0.02,0-0.04,0L-182.47,42.48L-182.47,42.48l-0.04,0c0,0,0,0,0,0c0,0,0,0,0,0h0
			C-182.49,42.48-182.48,42.48-182.47,42.48c0-1.63,0.17-3.22,0.47-4.76c-9.44,3.25-18.01,4.76-18.01,4.76s8.55,1.51,17.98,4.75
			c-0.29-1.52-0.44-3.08-0.44-4.68C-182.47,42.53-182.47,42.51-182.47,42.48z"/>
		<path class="st1" d="M-157.5,17.55C-157.5,17.55-157.51,17.55-157.5,17.55c-0.01,1.64-0.4,3.18-1.08,4.65
			c0.36,0.36,0.72,0.72,1.08,1.07V17.55z"/>
		<path class="st1" d="M-177.83,41.42c-1.46,0.68-3,1.05-4.63,1.05c0,0,0,0,0,0h5.68C-177.13,42.12-177.48,41.77-177.83,41.42z"/>
		<path class="st1" d="M-157.43,67.55L-157.43,67.55c-0.01,0-0.02,0-0.04,0c-1.64,0-3.24-0.16-4.79-0.46
			c3.24,9.46,4.75,18.04,4.75,18.04s1.51-8.57,4.75-18.02C-154.27,67.39-155.83,67.55-157.43,67.55
			C-157.43,67.55-157.43,67.55-157.43,67.55z"/>
		<path class="st1" d="M-157.43,67.55L-157.43,67.55c0-1.62,0.37-3.15,1.03-4.6c-0.34-0.34-0.68-0.68-1.03-1.02V67.55z"/>
		<polygon class="st1" points="-132.5,42.48 -132.51,42.48 -132.5,42.48 		"/>
		<path class="st1" d="M-137.29,43.6c1.5-0.72,3.1-1.12,4.78-1.12h-5.65c-0.04,0.04-0.08,0.08-0.12,0.12
			C-137.95,42.93-137.62,43.27-137.29,43.6z"/>
		<path class="st1" d="M-176.79,42.48h-5.68c0,0,0,0,0,0c1.67,0.01,3.24,0.4,4.73,1.11c0.34-0.34,0.68-0.69,1.02-1.04
			C-176.74,42.53-176.76,42.5-176.79,42.48z"/>
		<path class="st1" d="M-157.5,67.48v-5.6c-0.34,0.33-0.68,0.67-1.02,1.01C-157.87,64.33-157.5,65.86-157.5,67.48z"/>
		<path class="st1" d="M-139.76,24.8l-0.05,0.05c0.02,0.02,0.03,0.03,0.05,0.05l0,0c0,0,0,0,0,0c1.11,1.11,2.12,2.33,3,3.64
			c4.38-8.98,9.37-16.12,9.37-16.12s-7.15,5-16.13,9.38c1.33,0.9,2.57,1.92,3.7,3.05C-139.8,24.83-139.78,24.82-139.76,24.8z"/>
		<path class="st1" d="M-143.48,63.28c8.97,4.38,16.09,9.36,16.09,9.36s-4.98-7.12-9.36-16.09
			C-138.54,59.19-140.83,61.48-143.48,63.28z"/>
		<polygon class="st1" points="-139.76,60.15 -139.76,60.15 -139.76,60.15 		"/>
		<path class="st1" d="M-139.76,60.15c-1.13-1.14-1.95-2.47-2.51-3.94c-0.48,0-0.95,0-1.43,0.01L-139.76,60.15z"/>
		<path class="st1" d="M-142.33,28.99c0.56-1.53,1.39-2.91,2.57-4.09h0l-4.08,4.08C-143.34,28.99-142.84,28.99-142.33,28.99z"/>
		<path class="st1" d="M-175.12,24.8l0.03,0.03c0,0,0,0,0,0L-175.12,24.8C-175.12,24.8-175.12,24.8-175.12,24.8
			C-175.12,24.8-175.12,24.8-175.12,24.8L-175.12,24.8c0.01,0.01,0.02,0.02,0.03,0.02c1.13-1.13,2.37-2.14,3.7-3.04
			c-8.97-4.38-16.1-9.36-16.1-9.36s4.98,7.12,9.35,16.08c0.9-1.32,1.92-2.55,3.05-3.67C-175.1,24.82-175.11,24.81-175.12,24.8z"/>
		<path class="st1" d="M-139.82,24.85C-139.82,24.85-139.82,24.85-139.82,24.85c-1.17,1.14-2.53,1.97-4.05,2.52
			c0,0.51,0,1.02,0.01,1.52L-139.82,24.85z"/>
		<path class="st1" d="M-171.08,27.35c-1.5-0.55-2.85-1.38-4.01-2.53c0,0,0,0,0,0l4,4C-171.08,28.33-171.08,27.84-171.08,27.35z"/>
		<path class="st1" d="M-175.12,60.26L-175.12,60.26c-1.14-1.14-2.18-2.39-3.09-3.74c-4.4,8.98-9.39,16.11-9.39,16.11
			s7.13-4.99,16.1-9.38C-172.8,62.36-174.01,61.36-175.12,60.26C-175.12,60.26-175.12,60.26-175.12,60.26z"/>
		<path class="st1" d="M-175.12,60.26C-175.12,60.26-175.12,60.26-175.12,60.26c1.16-1.16,2.53-2,4.06-2.56c0-0.5,0-0.99-0.01-1.49
			L-175.12,60.26z"/>
		<polygon class="st1" points="-139.76,60.15 -139.76,60.15 -139.76,60.15 		"/>
		<path class="st1" d="M-143.94,56.22c-0.01,0.45-0.01,0.89-0.01,1.34c1.57,0.56,2.99,1.4,4.18,2.59l-3.94-3.94
			C-143.78,56.22-143.86,56.22-143.94,56.22z"/>
		<path class="st1" d="M-175.12,60.15l3.96-3.96c-0.48-0.01-0.96-0.01-1.44-0.01C-173.16,57.67-173.98,59.01-175.12,60.15z"/>
		<path class="st1" d="M-171.09,28.83l-4-4c0,0,0,0,0,0c1.17,1.18,2,2.57,2.55,4.11c0.48,0,0.97,0,1.45-0.01
			C-171.09,28.9-171.09,28.86-171.09,28.83z"/>
		<path class="st1" d="M-141.27,81.87c0,0-1.87-8.47-2.49-18.41c-2.63,1.73-5.6,2.97-8.79,3.61
			C-145.94,74.54-141.27,81.87-141.27,81.87z"/>
		<path class="st1" d="M-173.76,3.24c0,0,1.88,8.5,2.49,18.47c2.63-1.74,5.6-3.01,8.8-3.66C-169.08,10.58-173.76,3.24-173.76,3.24z"
			/>
		<path class="st1" d="M-196.78,26.26c0,0,7.34,4.68,14.81,11.29c0.65-3.2,1.91-6.17,3.66-8.8
			C-188.28,28.14-196.78,26.26-196.78,26.26z"/>
		<path class="st1" d="M-173.74,81.89c0,0,4.68-7.34,11.3-14.83c-3.2-0.65-6.18-1.91-8.81-3.65
			C-171.86,73.38-173.74,81.89-173.74,81.89z"/>
		<path class="st1" d="M-196.8,58.87c0,0,8.52-1.89,18.5-2.49c-1.75-2.63-3.02-5.61-3.67-8.82
			C-189.45,54.18-196.8,58.87-196.8,58.87z"/>
		<path class="st1" d="M-118.13,26.28c0,0-8.49,1.88-18.46,2.51c1.73,2.62,2.99,5.59,3.63,8.77
			C-125.47,30.95-118.13,26.28-118.13,26.28z"/>
		<path class="st1" d="M-141.15,3.22c0,0-4.67,7.34-11.29,14.84c3.19,0.65,6.15,1.91,8.78,3.65
			C-143.04,11.73-141.15,3.22-141.15,3.22z"/>
		<path class="st1" d="M-118.21,58.89c0,0-7.31-4.66-14.77-11.26c-0.66,3.19-1.92,6.15-3.67,8.77
			C-126.69,57.01-118.21,58.89-118.21,58.89z"/>
		<path class="st1" d="M-142.28,51.13c0.69-1.21,1.23-2.51,1.62-3.88c0.31,0.89,0.63,1.78,0.98,2.67c2.13-0.92,4.32-1.76,6.46-2.5
			c-1.37-1.21-2.73-2.49-4.06-3.82c-1.04,0.5-2.03,1.15-2.99,1.93c0.17-0.98,0.28-1.99,0.28-3.02c0-0.01,0-0.01,0-0.02h1.84
			c0,0,0,0,0,0H-140c0-1.04-0.11-2.05-0.28-3.04c1,0.82,2.05,1.5,3.15,2c1.3-1.29,2.64-2.54,3.98-3.72
			c-2.17-0.75-4.39-1.6-6.56-2.54c-0.34,0.87-0.65,1.75-0.95,2.62c-0.37-1.33-0.88-2.6-1.54-3.78c0.82,0.4,1.65,0.79,2.49,1.16
			c0.86-2.18,1.82-4.32,2.81-6.37c-1.78,0.11-3.61,0.17-5.44,0.18c-0.4,1.11-0.65,2.31-0.78,3.56c-0.58-0.84-1.23-1.63-1.95-2.35
			l1.21-1.21c0,0-0.01,0-0.01,0c0-0.03,0-0.06,0-0.09l-1.25,1.25c-0.73-0.73-1.53-1.39-2.38-1.99c1.28-0.13,2.5-0.37,3.63-0.78
			c0.01-1.85,0.07-3.69,0.18-5.49c-2.08,1.01-4.25,1.98-6.46,2.86c0.37,0.84,0.76,1.66,1.16,2.48c-1.16-0.65-2.41-1.16-3.72-1.54
			c0.86-0.3,1.71-0.61,2.57-0.95c-0.92-2.13-1.76-4.31-2.5-6.45c-1.18,1.34-2.43,2.67-3.72,3.97c0.49,1.06,1.15,2.06,1.93,3.03
			c-0.98-0.17-1.97-0.28-3-0.28v-1.69c0,0-0.01,0.01-0.01,0.01c-0.02-0.02-0.04-0.04-0.06-0.06V25c-1.05,0-2.07,0.11-3.06,0.29
			c0.8-0.98,1.48-2.01,1.98-3.08c-1.3-1.31-2.56-2.66-3.75-4c-0.75,2.15-1.58,4.34-2.51,6.49c0.87,0.35,1.75,0.67,2.63,0.97
			c-1.34,0.38-2.62,0.9-3.81,1.57c0.4-0.84,0.81-1.68,1.18-2.54c-2.19-0.87-4.35-1.84-6.41-2.84c0.11,1.8,0.17,3.65,0.18,5.5
			c1.12,0.41,2.33,0.66,3.6,0.79c-0.84,0.58-1.62,1.23-2.34,1.95l-1.26-1.26c0,0,0,0,0,0l1.26,1.26c-0.72,0.71-1.37,1.5-1.96,2.33
			c-0.13-1.22-0.37-2.39-0.75-3.48c-1.84,0-3.68-0.06-5.47-0.17c0.99,2.04,1.94,4.17,2.8,6.33c0.83-0.36,1.64-0.75,2.45-1.14
			c-0.64,1.15-1.16,2.38-1.53,3.67c-0.3-0.84-0.59-1.69-0.92-2.53c-2.19,0.95-4.43,1.8-6.63,2.56c1.35,1.2,2.7,2.45,4.01,3.76
			c1.09-0.5,2.13-1.18,3.12-1.99c-0.18,0.99-0.28,2.01-0.28,3.05h-1.79l0,0h1.79c0,0.01,0,0.01,0,0.02c0,1.04,0.11,2.05,0.28,3.03
			c-0.96-0.79-1.97-1.45-3.02-1.95c-1.3,1.3-2.64,2.56-3.98,3.75c2.15,0.75,4.34,1.58,6.48,2.51c0.33-0.84,0.63-1.69,0.93-2.54
			c0.37,1.29,0.88,2.53,1.52,3.68c-0.81-0.39-1.62-0.78-2.45-1.14c-0.88,2.23-1.87,4.42-2.89,6.51c1.81-0.11,3.67-0.17,5.53-0.17
			c0.42-1.12,0.68-2.33,0.82-3.6c0.58,0.82,1.22,1.6,1.93,2.3l-1.31,1.31c0.03,0,0.06,0,0.09,0c0,0,0,0.01,0,0.01l1.27-1.27
			c0.73,0.72,1.53,1.38,2.38,1.97c-1.29,0.13-2.51,0.38-3.64,0.79c0,1.82-0.07,3.64-0.17,5.42c2.05-1,4.19-1.96,6.37-2.82
			c-0.37-0.86-0.77-1.69-1.17-2.53c1.18,0.66,2.45,1.18,3.77,1.56c-0.87,0.31-1.74,0.63-2.6,0.97c0.95,2.19,1.8,4.43,2.55,6.63
			c1.2-1.36,2.47-2.71,3.79-4.03c-0.5-1.1-1.18-2.16-2-3.17c0.98,0.17,1.99,0.28,3.02,0.28v1.88c0,0,0.01-0.01,0.01-0.01
			c0.02,0.02,0.04,0.04,0.06,0.06V60c1.06,0,2.1-0.11,3.1-0.3c-0.85,1.03-1.56,2.11-2.08,3.25c1.29,1.3,2.53,2.63,3.71,3.96
			c0.75-2.18,1.6-4.41,2.54-6.59c-0.89-0.35-1.78-0.66-2.67-0.97c1.36-0.38,2.65-0.9,3.85-1.57c-0.4,0.84-0.81,1.68-1.18,2.54
			c2.18,0.86,4.32,1.82,6.37,2.81c-0.11-1.82-0.17-3.7-0.17-5.57c-1.09-0.39-2.26-0.63-3.49-0.75c0.84-0.59,1.64-1.25,2.36-1.98
			l1.38,1.38c0,0,0,0,0,0l-1.38-1.38c0.73-0.73,1.39-1.53,1.97-2.38c0.13,1.33,0.4,2.59,0.84,3.76c1.84,0.01,3.67,0.07,5.45,0.18
			c-1.01-2.08-1.99-4.26-2.86-6.47C-140.56,50.3-141.42,50.71-142.28,51.13z M-157.5,57.5c-8.28,0-15-6.72-15-15
			c0-8.28,6.72-15,15-15s15,6.72,15,15C-142.5,50.78-149.22,57.5-157.5,57.5z"/>
		<path class="st1" d="M-157.5,30c-6.9,0-12.5,5.6-12.5,12.5s5.6,12.5,12.5,12.5s12.5-5.6,12.5-12.5S-150.6,30-157.5,30z
			 M-157.5,52.5c-5.52,0-10-4.48-10-10c0-5.52,4.48-10,10-10s10,4.48,10,10C-147.5,48.02-151.98,52.5-157.5,52.5z"/>
	</g>
	<g>
		<path class="st3" d="M-57.5,24.87v0.05c0.01,0,0.02,0,0.03,0c0.01,0,0.02,0,0.03,0v0c0,0,0,0,0,0c1.13,0,2.24,0.11,3.31,0.32
			c-2.3-6.66-3.36-12.71-3.36-12.71s-1.07,6.06-3.37,12.72c1.09-0.21,2.21-0.33,3.36-0.33C-57.5,24.9-57.5,24.89-57.5,24.87z"/>
		<path class="st3" d="M-27.47,42.55c0,0-6.04-1.07-12.69-3.36c0.21,1.09,0.32,2.21,0.32,3.36s-0.11,2.27-0.32,3.36
			C-33.51,43.62-27.47,42.55-27.47,42.55z"/>
		<path class="st3" d="M-75.1,42.55c0-0.02,0-0.03,0-0.05c-0.01,0-0.02,0-0.03,0h0.03v0h-0.03c0,0,0,0,0,0c0,0,0,0,0,0h0
			c0.01,0,0.02,0,0.03,0c0-1.15,0.12-2.27,0.33-3.36c-6.66,2.29-12.7,3.36-12.7,3.36s6.03,1.07,12.68,3.35
			C-74.99,44.78-75.1,43.68-75.1,42.55z"/>
		<path class="st3" d="M-57.44,60.19L-57.44,60.19c-0.01,0-0.02,0-0.03,0c-1.16,0-2.28-0.11-3.38-0.33
			c2.29,6.67,3.35,12.72,3.35,12.72s1.06-6.04,3.35-12.71C-55.22,60.07-56.32,60.18-57.44,60.19
			C-57.44,60.19-57.44,60.19-57.44,60.19z"/>
		<path class="st3" d="M-45.02,30.07c0.01-0.01,0.03-0.02,0.04-0.03L-45.02,30.07c0.02,0.01,0.03,0.03,0.04,0.04l0,0c0,0,0,0,0,0
			c0.78,0.79,1.49,1.65,2.12,2.57c3.09-6.33,6.61-11.37,6.61-11.37s-5.04,3.52-11.38,6.61C-46.7,28.55-45.82,29.27-45.02,30.07z"/>
		<path class="st3" d="M-47.6,57.17c6.32,3.09,11.35,6.6,11.35,6.6s-3.51-5.02-6.6-11.35C-44.12,54.29-45.73,55.9-47.6,57.17z"/>
		<path class="st3" d="M-69.9,30.05c-0.01-0.01-0.01-0.01-0.02-0.02L-69.9,30.05C-69.9,30.05-69.9,30.05-69.9,30.05l-0.02-0.02
			c0,0,0,0,0,0c0,0,0,0,0,0l0,0C-69.91,30.04-69.91,30.04-69.9,30.05c0.8-0.8,1.68-1.51,2.61-2.14c-6.33-3.09-11.36-6.6-11.36-6.6
			s3.51,5.02,6.59,11.34C-71.42,31.71-70.7,30.84-69.9,30.05z"/>
		<path class="st3" d="M-69.92,55.04C-69.92,55.04-69.92,55.04-69.92,55.04L-69.92,55.04c-0.81-0.81-1.54-1.69-2.18-2.64
			c-3.1,6.33-6.62,11.36-6.62,11.36s5.03-3.52,11.36-6.62C-68.28,56.53-69.14,55.82-69.92,55.04z"/>
		<path class="st3" d="M-54,59.84c4.66,5.27,7.95,10.44,7.95,10.44s-1.32-5.97-1.75-12.98C-49.66,58.51-51.75,59.39-54,59.84z"/>
		<path class="st3" d="M-61,25.28c-4.67-5.27-7.96-10.45-7.96-10.45s1.33,5.99,1.76,13.03C-65.35,26.62-63.25,25.73-61,25.28z"/>
		<path class="st3" d="M-72.17,32.82c-7.03-0.43-13.03-1.76-13.03-1.76s5.17,3.3,10.45,7.96C-74.29,36.77-73.4,34.67-72.17,32.82z"
			/>
		<path class="st3" d="M-68.95,70.29c0,0,3.3-5.18,7.97-10.46c-2.26-0.46-4.36-1.34-6.22-2.57C-67.62,64.3-68.95,70.29-68.95,70.29z
			"/>
		<path class="st3" d="M-74.75,46.08c-5.28,4.67-10.46,7.98-10.46,7.98s6.01-1.33,13.05-1.76C-73.4,50.44-74.29,48.34-74.75,46.08z"
			/>
		<path class="st3" d="M-40.19,39.03c5.29-4.66,10.46-7.96,10.46-7.96s-5.99,1.33-13.02,1.77C-41.53,34.7-40.65,36.79-40.19,39.03z"
			/>
		<path class="st3" d="M-45.97,14.81c0,0-3.3,5.18-7.96,10.47c2.25,0.46,4.34,1.35,6.19,2.57C-47.3,20.81-45.97,14.81-45.97,14.81z"
			/>
		<path class="st3" d="M-42.79,52.32c7.02,0.43,13.01,1.76,13.01,1.76s-5.15-3.29-10.42-7.94C-40.67,48.38-41.56,50.47-42.79,52.32z
			"/>
		<path class="st3" d="M-57.49,28.41c-7.79,0-14.11,6.32-14.11,14.11c0,7.79,6.32,14.11,14.11,14.11s14.11-6.32,14.11-14.11
			C-43.39,34.73-49.7,28.41-57.49,28.41z M-66.48,41.36c0-1.46,1.18-2.64,2.64-2.64c1.46,0,2.64,1.18,2.64,2.64
			c0,1.46-1.18,2.64-2.64,2.64C-65.3,44.01-66.48,42.82-66.48,41.36z M-57.49,51.61c-2.43,0-4.49-1.76-5.29-4.23
			c1.51,0.71,3.33,1.12,5.29,1.12c1.96,0,3.78-0.41,5.29-1.12C-53,49.84-55.06,51.61-57.49,51.61z M-51.14,44.01
			c-1.46,0-2.64-1.18-2.64-2.64c0-1.46,1.18-2.64,2.64-2.64s2.64,1.18,2.64,2.64C-48.5,42.82-49.68,44.01-51.14,44.01z"/>
	</g>
	<g>
		<path class="st3" d="M-230.23,54.21c0.69,0.33,1.17,1.03,1.18,1.85c0.58-1.1,1.11-2.24,1.56-3.41
			C-228.38,53.22-229.29,53.73-230.23,54.21z"/>
		<path class="st3" d="M-233.19,56.07c0-0.2,0.04-0.39,0.09-0.58c-3.18,1.2-6.62,1.87-10.22,1.87c-0.5,0-1-0.01-1.5-0.04
			c0.1,0.25,0.16,0.52,0.16,0.8c0,1.14-0.93,2.07-2.07,2.07c-1.14,0-2.07-0.93-2.07-2.07c0-0.46,0.15-0.87,0.4-1.21
			c-3.45-0.61-6.69-1.83-9.6-3.55c-9.91,5.3-18.47-1.66-18.47-1.66c6.97,0.07,10.39-1.76,12.08-3.44
			c-4.89-5.18-7.89-12.16-7.89-19.85c0-5.84,1.74-11.27,4.71-15.82c-4.92,1.89-9.24,4.99-12.58,8.94c0.36,0.37,0.58,0.88,0.58,1.44
			c0,1.14-0.93,2.07-2.07,2.07c-0.34,0-0.66-0.09-0.94-0.24c-3.11,4.83-4.92,10.59-4.92,16.76c0,0.65,0.03,1.29,0.07,1.93
			c1.11,0.04,2,0.94,2,2.06c0,0.94-0.63,1.72-1.49,1.98c0.8,4.09,2.39,7.89,4.63,11.24c0.98,0.17,1.72,1.01,1.72,2.03
			c0,0.09-0.02,0.18-0.03,0.27c3.47,4.29,8.06,7.63,13.33,9.59c0.33-0.7,1.04-1.19,1.87-1.19c1.14,0,2.07,0.93,2.07,2.07
			c0,0.1-0.02,0.19-0.03,0.28c2.22,0.5,4.52,0.78,6.89,0.78c3.26,0,6.41-0.51,9.36-1.44c-0.53-0.37-0.88-0.99-0.88-1.69
			c0-1.14,0.93-2.07,2.07-2.07c1.14,0,2.07,0.93,2.07,2.07c0,0.16-0.02,0.32-0.06,0.48c5.74-2.55,10.56-6.78,13.84-12.08
			c-0.31,0.18-0.66,0.3-1.05,0.3C-232.27,58.14-233.19,57.21-233.19,56.07z M-279.57,41.72c0-1.71,1.39-3.1,3.1-3.1
			c1.71,0,3.1,1.39,3.1,3.1c0,1.71-1.39,3.1-3.1,3.1C-278.18,44.83-279.57,43.44-279.57,41.72z"/>
	</g>
	<g>
		<path class="st3" d="M-171.04,41.83c0-1.46-1.19-2.65-2.65-2.65c-1.46,0-2.65,1.19-2.65,2.65c0,1.46,1.19,2.65,2.65,2.65
			C-172.22,44.47-171.04,43.29-171.04,41.83z"/>
		<path class="st3" d="M-129.18,0h-56.47H-200v14.81v55.47V85h14.35h56.47H-115V70.28V14.81V0H-129.18z M-147.62,63.72
			c-0.97,0-1.76,0.79-1.76,1.76c0,0.6,0.3,1.12,0.75,1.44c-2.52,0.8-5.2,1.23-7.99,1.23c-2.02,0-3.99-0.23-5.88-0.66
			c0.01-0.08,0.02-0.16,0.02-0.24c0-0.97-0.79-1.76-1.76-1.76c-0.71,0-1.31,0.42-1.59,1.02c-4.49-1.67-8.41-4.52-11.37-8.18
			c0.01-0.08,0.02-0.15,0.02-0.23c0-0.87-0.64-1.59-1.47-1.73c-1.91-2.85-3.27-6.1-3.95-9.59c0.73-0.21,1.27-0.88,1.27-1.69
			c0-0.96-0.76-1.73-1.71-1.76c-0.03-0.54-0.06-1.09-0.06-1.64c0-5.27,1.54-10.18,4.2-14.3c0.24,0.12,0.51,0.2,0.8,0.2
			c0.97,0,1.76-0.79,1.76-1.76c0-0.48-0.19-0.91-0.5-1.23c2.86-3.37,6.54-6.02,10.74-7.63c-2.54,3.88-4.02,8.52-4.02,13.5
			c0,6.56,2.56,12.52,6.73,16.94c-1.43,1.44-4.36,3-10.3,2.94c0,0,7.3,5.94,15.76,1.42c2.48,1.46,5.25,2.51,8.19,3.03
			c-0.21,0.29-0.34,0.65-0.34,1.04c0,0.97,0.79,1.76,1.76,1.76s1.76-0.79,1.76-1.76c0-0.24-0.05-0.47-0.14-0.68
			c0.42,0.02,0.85,0.03,1.28,0.03c3.07,0,6.01-0.57,8.72-1.59c-0.05,0.16-0.08,0.32-0.08,0.49c0,0.97,0.79,1.76,1.76,1.76
			c0.33,0,0.63-0.1,0.9-0.25c-2.79,4.52-6.91,8.13-11.81,10.31c0.03-0.13,0.05-0.27,0.05-0.41
			C-145.86,64.51-146.65,63.72-147.62,63.72z M-134.24,52.48c0.8-0.41,1.58-0.84,2.33-1.33c-0.38,1-0.83,1.97-1.33,2.91
			C-133.24,53.36-133.65,52.76-134.24,52.48z"/>
	</g>
	<g>
		<polygon class="st3" points="30.08,30.03 30.08,30.03 30.08,30.03 		"/>
		<polygon class="st3" points="24.87,42.5 24.87,42.5 24.87,42.5 		"/>
		<path class="st3" d="M48.86,38.72c-1.46,0-2.64,1.18-2.64,2.64c0,1.46,1.18,2.64,2.64,2.64c1.46,0,2.64-1.18,2.64-2.64
			C51.5,39.9,50.32,38.72,48.86,38.72z"/>
		<path class="st3" d="M0,0v85h85V0H0z M70.27,31.08c0,0-5.17,3.3-10.46,7.96c-0.46-2.25-1.34-4.34-2.56-6.19
			C64.28,32.41,70.27,31.08,70.27,31.08z M57.13,32.67c-0.62-0.92-1.33-1.78-2.12-2.57c0,0,0,0,0,0l0,0
			c-0.01-0.01-0.02-0.02-0.04-0.04l0.04-0.04c-0.01,0.01-0.03,0.02-0.04,0.03c-0.8-0.8-1.67-1.52-2.61-2.15
			c6.34-3.09,11.38-6.61,11.38-6.61S60.22,26.34,57.13,32.67z M56.61,42.52c0,7.79-6.32,14.11-14.11,14.11S28.4,50.31,28.4,42.52
			s6.32-14.11,14.11-14.11S56.61,34.73,56.61,42.52z M54.03,14.81c0,0-1.33,6-1.77,13.04c-1.85-1.23-3.94-2.12-6.19-2.57
			C50.74,19.99,54.03,14.81,54.03,14.81z M42.5,12.53c0,0,1.07,6.05,3.36,12.71c-1.07-0.21-2.18-0.32-3.31-0.32c0,0,0,0,0,0v0
			c-0.01,0-0.02,0-0.03,0c-0.01,0-0.02,0-0.03,0v-0.05c0,0.02,0,0.03,0,0.05c-1.15,0-2.28,0.12-3.36,0.33
			C41.43,18.58,42.5,12.53,42.5,12.53z M39,25.28c-2.26,0.46-4.35,1.35-6.21,2.58c-0.43-7.03-1.76-13.03-1.76-13.03
			S34.34,20,39,25.28z M32.71,27.91c-0.94,0.63-1.81,1.35-2.61,2.14c-0.01-0.01-0.01-0.01-0.02-0.02l0.02,0.02c0,0,0,0,0,0
			l-0.02-0.02c0.01,0.01,0.01,0.01,0.02,0.02c-0.8,0.79-1.52,1.66-2.15,2.59c-3.09-6.32-6.59-11.34-6.59-11.34
			S26.38,24.82,32.71,27.91z M27.83,32.82c-1.23,1.85-2.12,3.95-2.58,6.21c-5.27-4.67-10.45-7.96-10.45-7.96S20.8,32.39,27.83,32.82
			z M25.23,39.14c-0.21,1.09-0.33,2.21-0.33,3.36c-0.01,0-0.02,0-0.03,0h0.03v0h-0.03c0.01,0,0.02,0,0.03,0c0,0.02,0,0.03,0,0.05
			c0,1.13,0.11,2.23,0.31,3.3c-6.65-2.29-12.68-3.35-12.68-3.35S18.57,41.43,25.23,39.14z M25.25,46.08
			c0.46,2.26,1.35,4.36,2.59,6.22c-7.04,0.43-13.05,1.76-13.05,1.76S19.97,50.75,25.25,46.08z M27.9,52.4
			c0.64,0.95,1.37,1.83,2.18,2.64l0,0c0,0,0,0,0,0c0.78,0.78,1.64,1.49,2.55,2.11c-6.33,3.1-11.36,6.62-11.36,6.62
			S24.8,58.74,27.9,52.4z M31.05,70.29c0,0,1.33-6,1.76-13.03c1.86,1.23,3.96,2.12,6.22,2.57C34.36,65.11,31.05,70.29,31.05,70.29z
			 M42.5,72.58c0,0-1.06-6.05-3.35-12.72c1.09,0.21,2.22,0.33,3.38,0.33c0.01,0,0.02,0,0.03,0v0c0,0,0,0,0,0
			c1.13,0,2.23-0.11,3.3-0.32C43.57,66.54,42.5,72.58,42.5,72.58z M46,59.84c2.25-0.45,4.35-1.33,6.2-2.55
			c0.43,7.01,1.75,12.98,1.75,12.98S50.66,65.11,46,59.84z M52.4,57.17c1.87-1.26,3.48-2.88,4.75-4.75
			c3.09,6.32,6.6,11.35,6.6,11.35S58.72,60.25,52.4,57.17z M57.21,52.32c1.23-1.85,2.12-3.94,2.59-6.18
			c5.26,4.65,10.42,7.94,10.42,7.94S64.23,52.75,57.21,52.32z M59.84,45.91c0.21-1.09,0.32-2.21,0.32-3.36
			c0-1.15-0.11-2.27-0.32-3.36c6.65,2.29,12.69,3.36,12.69,3.36S66.49,43.62,59.84,45.91z"/>
		<path class="st3" d="M37.22,47.37c0.8,2.47,2.86,4.23,5.29,4.23s4.49-1.76,5.29-4.23c-1.51,0.71-3.33,1.12-5.29,1.12
			S38.73,48.08,37.22,47.37z"/>
		<path class="st3" d="M38.81,41.36c0-1.46-1.18-2.64-2.64-2.64c-1.46,0-2.64,1.18-2.64,2.64c0,1.46,1.18,2.64,2.64,2.64
			C37.62,44.01,38.81,42.82,38.81,41.36z"/>
	</g>
</g>
<g id="Layer_2">
</g>
</svg>
