<?xml version="1.0" encoding="utf-8"?>
<!-- Generator: Adobe Illustrator 25.2.3, SVG Export Plug-In . SVG Version: 6.00 Build 0)  -->
<svg version="1.1" xmlns="http://www.w3.org/2000/svg" xmlns:xlink="http://www.w3.org/1999/xlink" x="0px" y="0px"
	 viewBox="0 0 85 85" style="enable-background:new 0 0 85 85;" xml:space="preserve">
<style type="text/css">
	.st0{display:none;}
	.st1{display:inline;fill:#FFFFFF;}
	.st2{display:inline;}
	.st3{fill:#FFFFFF;}
</style>
<g id="Layer_1">
	<g>
		<path class="st3" d="M37.22,47.37c0.8,2.47,2.86,4.23,5.29,4.23s4.49-1.76,5.29-4.23c-1.51,0.71-3.33,1.12-5.29,1.12
			S38.73,48.08,37.22,47.37z"/>
		<path class="st3" d="M38.81,41.36c0-1.46-1.18-2.64-2.64-2.64c-1.46,0-2.64,1.18-2.64,2.64c0,1.46,1.18,2.64,2.64,2.64
			C37.62,44.01,38.81,42.82,38.81,41.36z"/>
		<polygon class="st3" points="24.87,42.5 24.87,42.5 24.87,42.5 		"/>
		<polygon class="st3" points="30.08,30.03 30.08,30.03 30.08,30.03 		"/>
		<path class="st3" d="M48.86,38.72c-1.46,0-2.64,1.18-2.64,2.64c0,1.46,1.18,2.64,2.64,2.64c1.46,0,2.64-1.18,2.64-2.64
			C51.5,39.9,50.32,38.72,48.86,38.72z"/>
		<path class="st3" d="M0.06,0v85h85V0H0.06z M70.27,31.08c0,0-5.17,3.3-10.46,7.96c-0.46-2.25-1.34-4.34-2.56-6.19
			C64.28,32.41,70.27,31.08,70.27,31.08z M57.13,32.67c-0.62-0.92-1.33-1.78-2.12-2.57c0,0,0,0,0,0l0,0
			c-0.01-0.01-0.02-0.02-0.04-0.04l0.04-0.04c-0.01,0.01-0.03,0.02-0.04,0.03c-0.8-0.8-1.67-1.52-2.61-2.15
			c6.34-3.09,11.38-6.61,11.38-6.61S60.22,26.34,57.13,32.67z M56.61,42.52c0,7.79-6.32,14.11-14.11,14.11S28.4,50.31,28.4,42.52
			s6.32-14.11,14.11-14.11S56.61,34.73,56.61,42.52z M54.03,14.81c0,0-1.33,6-1.77,13.04c-1.85-1.23-3.94-2.12-6.19-2.57
			C50.74,19.99,54.03,14.81,54.03,14.81z M42.5,12.53c0,0,1.07,6.05,3.36,12.71c-1.07-0.21-2.18-0.32-3.31-0.32c0,0,0,0,0,0v0
			c-0.01,0-0.02,0-0.03,0c-0.01,0-0.02,0-0.03,0v-0.05c0,0.02,0,0.03,0,0.05c-1.15,0-2.28,0.12-3.36,0.33
			C41.43,18.58,42.5,12.53,42.5,12.53z M39,25.28c-2.26,0.46-4.35,1.35-6.21,2.58c-0.43-7.03-1.76-13.03-1.76-13.03
			S34.34,20,39,25.28z M32.71,27.91c-0.94,0.63-1.81,1.35-2.61,2.14c-0.01-0.01-0.01-0.01-0.02-0.02l0.02,0.02c0,0,0,0,0,0
			l-0.02-0.02c0.01,0.01,0.01,0.01,0.02,0.02c-0.8,0.79-1.52,1.66-2.15,2.59c-3.09-6.32-6.59-11.34-6.59-11.34
			S26.38,24.82,32.71,27.91z M27.83,32.82c-1.23,1.85-2.12,3.95-2.58,6.21c-5.27-4.67-10.45-7.96-10.45-7.96S20.8,32.39,27.83,32.82
			z M25.23,39.14c-0.21,1.09-0.33,2.21-0.33,3.36c-0.01,0-0.02,0-0.03,0h0.03v0h-0.03c0.01,0,0.02,0,0.03,0c0,0.02,0,0.03,0,0.05
			c0,1.13,0.11,2.23,0.31,3.3c-6.65-2.29-12.68-3.35-12.68-3.35S18.57,41.43,25.23,39.14z M25.25,46.08
			c0.46,2.26,1.35,4.36,2.59,6.22c-7.04,0.43-13.05,1.76-13.05,1.76S19.97,50.75,25.25,46.08z M27.9,52.4
			c0.64,0.95,1.37,1.83,2.18,2.64l0,0c0,0,0,0,0,0c0.78,0.78,1.64,1.49,2.55,2.11c-6.33,3.1-11.36,6.62-11.36,6.62
			S24.8,58.74,27.9,52.4z M31.05,70.29c0,0,1.33-6,1.76-13.03c1.86,1.23,3.96,2.12,6.22,2.57C34.36,65.11,31.05,70.29,31.05,70.29z
			 M42.5,72.58c0,0-1.06-6.05-3.35-12.72c1.09,0.21,2.22,0.33,3.38,0.33c0.01,0,0.02,0,0.03,0v0c0,0,0,0,0,0
			c1.13,0,2.23-0.11,3.3-0.32C43.57,66.54,42.5,72.58,42.5,72.58z M46,59.84c2.25-0.45,4.35-1.33,6.2-2.55
			c0.43,7.01,1.75,12.98,1.75,12.98S50.66,65.11,46,59.84z M52.4,57.17c1.87-1.26,3.48-2.88,4.75-4.75
			c3.09,6.32,6.6,11.35,6.6,11.35S58.72,60.25,52.4,57.17z M57.21,52.32c1.23-1.85,2.12-3.94,2.59-6.18
			c5.26,4.65,10.42,7.94,10.42,7.94S64.23,52.75,57.21,52.32z M59.84,45.91c0.21-1.09,0.32-2.21,0.32-3.36
			c0-1.15-0.11-2.27-0.32-3.36c6.65,2.29,12.69,3.36,12.69,3.36S66.49,43.62,59.84,45.91z"/>
	</g>
</g>
<g id="Layer_2">
</g>
</svg>
