<?xml version="1.0" encoding="utf-8"?>
<!-- Generator: Adobe Illustrator 25.2.3, SVG Export Plug-In . SVG Version: 6.00 Build 0)  -->
<svg version="1.1" id="Layer_1" xmlns="http://www.w3.org/2000/svg" xmlns:xlink="http://www.w3.org/1999/xlink" x="0px" y="0px"
	 viewBox="0 0 85 85" style="enable-background:new 0 0 85 85;" xml:space="preserve">
<style type="text/css">
	.st0{display:none;fill:#FFFFFF;}
	.st1{fill:#FFFFFF;}
</style>
<g>
	<path class="st1" d="M60.5,39.8c-2.71,0-5.28,0.59-7.61,1.66C51.71,43.11,51,45.15,51,47.37c0,5.47,4.25,9.91,9.5,9.91
		s9.5-4.44,9.5-9.91c0-2.22-0.71-4.26-1.89-5.91C65.78,40.39,63.21,39.8,60.5,39.8z"/>
	<path class="st1" d="M24.5,39.8c-2.71,0-5.28,0.59-7.61,1.66C15.71,43.11,15,45.15,15,47.37c0,5.47,4.25,9.91,9.5,9.91
		s9.5-4.44,9.5-9.91c0-2.22-0.71-4.26-1.89-5.91C29.78,40.39,27.21,39.8,24.5,39.8z"/>
	<path class="st1" d="M0,0v85h85V0H0z M60.5,60.04c-5.73,0-10.55-4.03-12.02-9.51h-0.01c0,0-0.46-3.19-5.96-3.19
		s-5.96,3.19-5.96,3.19h-0.01c-1.48,5.49-6.29,9.51-12.02,9.51C17.6,60.04,12,54.2,12,47c0-2.92,0.93-5.6,2.48-7.78l14.25-14.25
		h3.74c0,0,2.79-0.3,2.79,2.92h-2.79l-1.64-1.28L19.97,37.47l0,0.01c1.47-0.28,2.98-0.44,4.53-0.44c3.56,0,6.95,0.78,10.02,2.18
		c1.02,1.42,1.76,3.07,2.16,4.85c1.13-0.5,2.95-0.97,5.83-0.97s4.7,0.47,5.83,0.97c0.4-1.78,1.14-3.43,2.16-4.85
		c3.07-1.4,6.45-2.18,10.02-2.18c1.55,0,3.06,0.16,4.53,0.44l0-0.01L54.17,26.61l-1.64,1.28h-2.79c0-3.22,2.79-2.92,2.79-2.92h3.74
		l14.25,14.25C72.07,41.39,73,44.08,73,47C73,54.2,67.4,60.04,60.5,60.04z"/>
</g>
</svg>
