<?xml version="1.0" encoding="utf-8"?>
<!-- Generator: Adobe Illustrator 25.2.3, SVG Export Plug-In . SVG Version: 6.00 Build 0)  -->
<svg version="1.1" xmlns="http://www.w3.org/2000/svg" xmlns:xlink="http://www.w3.org/1999/xlink" x="0px" y="0px"
	 viewBox="0 0 85 85" style="enable-background:new 0 0 85 85;" xml:space="preserve">
<style type="text/css">
	.st0{display:none;}
	.st1{display:inline;fill:#FFFFFF;}
	.st2{display:inline;}
	.st3{fill:#FFFFFF;}
</style>
<g id="Layer_1">
	<rect class="st0" width="85" height="85"/>
	<g>
		<path class="st3" d="M42.5,24.87v0.05c0.01,0,0.02,0,0.03,0c0.01,0,0.02,0,0.03,0v0c0,0,0,0,0,0c1.13,0,2.24,0.11,3.31,0.32
			c-2.3-6.66-3.36-12.71-3.36-12.71s-1.07,6.06-3.37,12.72c1.09-0.21,2.21-0.33,3.36-0.33C42.5,24.9,42.5,24.89,42.5,24.87z"/>
		<path class="st3" d="M72.53,42.55c0,0-6.04-1.07-12.69-3.36c0.21,1.09,0.32,2.21,0.32,3.36s-0.11,2.27-0.32,3.36
			C66.49,43.62,72.53,42.55,72.53,42.55z"/>
		<path class="st3" d="M24.9,42.55c0-0.02,0-0.03,0-0.05c-0.01,0-0.02,0-0.03,0h0.03v0h-0.03c0,0,0,0,0,0c0,0,0,0,0,0h0
			c0.01,0,0.02,0,0.03,0c0-1.15,0.12-2.27,0.33-3.36c-6.66,2.29-12.7,3.36-12.7,3.36s6.03,1.07,12.68,3.35
			C25.01,44.78,24.9,43.68,24.9,42.55z"/>
		<path class="st3" d="M42.56,60.19L42.56,60.19c-0.01,0-0.02,0-0.03,0c-1.16,0-2.28-0.11-3.38-0.33
			c2.29,6.67,3.35,12.72,3.35,12.72s1.06-6.04,3.35-12.71C44.78,60.07,43.68,60.18,42.56,60.19C42.56,60.19,42.56,60.19,42.56,60.19
			z"/>
		<path class="st3" d="M54.98,30.07c0.01-0.01,0.03-0.02,0.04-0.03L54.98,30.07c0.02,0.01,0.03,0.03,0.04,0.04l0,0c0,0,0,0,0,0
			c0.78,0.79,1.49,1.65,2.12,2.57c3.09-6.33,6.61-11.37,6.61-11.37s-5.04,3.52-11.38,6.61C53.3,28.55,54.18,29.27,54.98,30.07z"/>
		<path class="st3" d="M52.4,57.17c6.32,3.09,11.35,6.6,11.35,6.6s-3.51-5.02-6.6-11.35C55.88,54.29,54.27,55.9,52.4,57.17z"/>
		<path class="st3" d="M30.1,30.05c-0.01-0.01-0.01-0.01-0.02-0.02L30.1,30.05C30.1,30.05,30.1,30.05,30.1,30.05l-0.02-0.02
			c0,0,0,0,0,0c0,0,0,0,0,0l0,0C30.09,30.04,30.09,30.04,30.1,30.05c0.8-0.8,1.68-1.51,2.61-2.14c-6.33-3.09-11.36-6.6-11.36-6.6
			s3.51,5.02,6.59,11.34C28.58,31.71,29.3,30.84,30.1,30.05z"/>
		<path class="st3" d="M30.08,55.04C30.08,55.04,30.08,55.04,30.08,55.04L30.08,55.04c-0.81-0.81-1.54-1.69-2.18-2.64
			c-3.1,6.33-6.62,11.36-6.62,11.36s5.03-3.52,11.36-6.62C31.72,56.53,30.86,55.82,30.08,55.04z"/>
		<path class="st3" d="M46,59.84c4.66,5.27,7.95,10.44,7.95,10.44s-1.32-5.97-1.75-12.98C50.34,58.51,48.25,59.39,46,59.84z"/>
		<path class="st3" d="M39,25.28c-4.67-5.27-7.96-10.45-7.96-10.45s1.33,5.99,1.76,13.03C34.65,26.62,36.75,25.73,39,25.28z"/>
		<path class="st3" d="M27.83,32.82c-7.03-0.43-13.03-1.76-13.03-1.76s5.17,3.3,10.45,7.96C25.71,36.77,26.6,34.67,27.83,32.82z"/>
		<path class="st3" d="M31.05,70.29c0,0,3.3-5.18,7.97-10.46c-2.26-0.46-4.36-1.34-6.22-2.57C32.38,64.3,31.05,70.29,31.05,70.29z"
			/>
		<path class="st3" d="M25.25,46.08c-5.28,4.67-10.46,7.98-10.46,7.98s6.01-1.33,13.05-1.76C26.6,50.44,25.71,48.34,25.25,46.08z"/>
		<path class="st3" d="M59.81,39.03c5.29-4.66,10.46-7.96,10.46-7.96s-5.99,1.33-13.02,1.77C58.47,34.7,59.35,36.79,59.81,39.03z"/>
		<path class="st3" d="M54.03,14.81c0,0-3.3,5.18-7.96,10.47c2.25,0.46,4.34,1.35,6.19,2.57C52.7,20.81,54.03,14.81,54.03,14.81z"/>
		<path class="st3" d="M57.21,52.32c7.02,0.43,13.01,1.76,13.01,1.76s-5.15-3.29-10.42-7.94C59.33,48.38,58.44,50.47,57.21,52.32z"
			/>
		<path class="st3" d="M42.51,28.41c-7.79,0-14.11,6.32-14.11,14.11c0,7.79,6.32,14.11,14.11,14.11s14.11-6.32,14.11-14.11
			C56.61,34.73,50.3,28.41,42.51,28.41z M33.52,41.36c0-1.46,1.18-2.64,2.64-2.64c1.46,0,2.64,1.18,2.64,2.64
			c0,1.46-1.18,2.64-2.64,2.64C34.7,44.01,33.52,42.82,33.52,41.36z M42.51,51.61c-2.43,0-4.49-1.76-5.29-4.23
			c1.51,0.71,3.33,1.12,5.29,1.12c1.96,0,3.78-0.41,5.29-1.12C47,49.84,44.94,51.61,42.51,51.61z M48.86,44.01
			c-1.46,0-2.64-1.18-2.64-2.64c0-1.46,1.18-2.64,2.64-2.64s2.64,1.18,2.64,2.64C51.5,42.82,50.32,44.01,48.86,44.01z"/>
	</g>
</g>
<g id="Layer_2">
</g>
</svg>
