<?xml version="1.0" encoding="utf-8"?>
<!-- Generator: Adobe Illustrator 25.2.3, SVG Export Plug-In . SVG Version: 6.00 Build 0)  -->
<svg version="1.1" xmlns="http://www.w3.org/2000/svg" xmlns:xlink="http://www.w3.org/1999/xlink" x="0px" y="0px"
	 viewBox="0 0 85 85" style="enable-background:new 0 0 85 85;" xml:space="preserve">
<style type="text/css">
	.st0{display:none;}
	.st1{display:inline;fill:#FFFFFF;}
	.st2{display:inline;}
	.st3{fill:#FFFFFF;}
</style>
<g id="Layer_1">
	<rect class="st0" width="85" height="85"/>
	<g class="st0">
		<path class="st1" d="M56.47,21.8c-0.05-0.03-0.1-0.06-0.14-0.09c0,0.06-0.01,0.11-0.01,0.17C56.37,21.85,56.42,21.83,56.47,21.8z"
			/>
		<path class="st1" d="M21.7,56.37c0.03,0.05,0.06,0.1,0.09,0.14c0.03-0.05,0.05-0.1,0.08-0.15C21.81,56.37,21.75,56.37,21.7,56.37z
			"/>
		<path class="st1" d="M37.56,67.06c0.06,0.01,0.12,0.02,0.18,0.03c-0.02-0.06-0.04-0.11-0.06-0.17
			C37.64,66.97,37.6,67.01,37.56,67.06z"/>
		<path class="st1" d="M28.5,63.25c0.08,0.06,0.17,0.11,0.25,0.16c0.01-0.1,0.01-0.19,0.02-0.29C28.68,63.16,28.59,63.2,28.5,63.25z
			"/>
		<path class="st1" d="M63.4,28.79c-0.05-0.08-0.11-0.17-0.16-0.25c-0.04,0.09-0.09,0.18-0.13,0.27C63.2,28.8,63.3,28.8,63.4,28.79z
			"/>
		<path class="st1" d="M67.01,47.63c0.02-0.1,0.04-0.21,0.06-0.32c-0.1,0.03-0.2,0.07-0.3,0.1C66.85,47.49,66.93,47.56,67.01,47.63z
			"/>
		<path class="st1" d="M47.55,18.06c-0.1-0.02-0.2-0.03-0.29-0.05c0.03,0.09,0.06,0.18,0.09,0.28
			C47.42,18.21,47.49,18.13,47.55,18.06z"/>
		<path class="st1" d="M28.73,21.71c-0.04,0.03-0.08,0.05-0.12,0.08c0.04,0.02,0.09,0.04,0.13,0.06
			C28.73,21.8,28.73,21.76,28.73,21.71z"/>
		<path class="st1" d="M21.85,28.5c-0.06,0.08-0.11,0.17-0.17,0.25c0.1,0.01,0.2,0.01,0.3,0.02C21.94,28.68,21.9,28.59,21.85,28.5z"
			/>
		<path class="st1" d="M18.03,37.55c-0.01,0.05-0.02,0.11-0.03,0.16c0.05-0.02,0.1-0.03,0.15-0.05
			C18.11,37.63,18.07,37.59,18.03,37.55z"/>
		<path class="st1" d="M37.72,18.02c-0.06,0.01-0.13,0.02-0.19,0.03c0.04,0.05,0.08,0.1,0.13,0.15
			C37.68,18.14,37.7,18.08,37.72,18.02z"/>
		<path class="st1" d="M63.18,56.39c0.03,0.05,0.05,0.1,0.08,0.16c0.03-0.05,0.06-0.1,0.09-0.15
			C63.29,56.39,63.23,56.39,63.18,56.39z"/>
		<path class="st1" d="M56.24,63.46c0.09-0.06,0.19-0.12,0.28-0.18c-0.1-0.05-0.2-0.1-0.3-0.15C56.23,63.24,56.23,63.35,56.24,63.46
			z"/>
		<path class="st1" d="M17.97,47.23c0.02,0.11,0.04,0.22,0.06,0.32c0.08-0.07,0.16-0.15,0.25-0.22
			C18.17,47.3,18.07,47.27,17.97,47.23z"/>
		<path class="st1" d="M67.07,37.8c-0.01-0.08-0.03-0.16-0.04-0.23c-0.06,0.05-0.12,0.1-0.18,0.16C66.92,37.75,67,37.77,67.07,37.8z
			"/>
		<path class="st1" d="M47.24,67.1c0.07-0.01,0.14-0.02,0.21-0.04c-0.05-0.05-0.09-0.11-0.14-0.16
			C47.28,66.97,47.26,67.04,47.24,67.1z"/>
		<path class="st1" d="M42.49,17.48v0.07c0.01,0,0.02,0,0.04,0s0.02,0,0.04,0v0c0,0,0,0,0,0c1.61,0,3.17,0.16,4.7,0.45
			c-3.25-9.45-4.77-18.03-4.77-18.03s-1.52,8.59-4.77,18.04c1.54-0.3,3.14-0.46,4.77-0.47C42.49,17.53,42.49,17.51,42.49,17.48z"/>
		<path class="st1" d="M67.07,47.31c9.44-3.25,17.99-4.76,17.99-4.76s-8.56-1.51-17.99-4.76c0.3,1.54,0.46,3.13,0.46,4.76
			S67.37,45.77,67.07,47.31z"/>
		<path class="st1" d="M43.64,22.25c-0.69-1.48-1.07-3.04-1.07-4.7h0v5.76C42.93,22.97,43.28,22.61,43.64,22.25z"/>
		<path class="st1" d="M67.49,42.48c-1.63,0-3.17-0.37-4.62-1.03c-0.35,0.34-0.69,0.69-1.03,1.03H67.49z"/>
		<path class="st1" d="M17.53,42.48c-0.01,0-0.02,0-0.04,0L17.53,42.48L17.53,42.48l-0.04,0c0,0,0,0,0,0c0,0,0,0,0,0h0
			C17.51,42.48,17.52,42.48,17.53,42.48c0-1.63,0.17-3.22,0.47-4.76c-9.44,3.25-18.01,4.76-18.01,4.76s8.55,1.51,17.98,4.75
			c-0.29-1.52-0.44-3.08-0.44-4.68C17.53,42.53,17.53,42.51,17.53,42.48z"/>
		<path class="st1" d="M42.49,17.55C42.49,17.55,42.49,17.55,42.49,17.55c-0.01,1.64-0.4,3.18-1.08,4.65
			c0.36,0.36,0.72,0.72,1.08,1.07V17.55z"/>
		<path class="st1" d="M22.16,41.42c-1.46,0.68-3,1.05-4.63,1.05c0,0,0,0,0,0h5.68C22.86,42.12,22.52,41.77,22.16,41.42z"/>
		<path class="st1" d="M42.57,67.55L42.57,67.55c-0.01,0-0.02,0-0.04,0c-1.64,0-3.24-0.16-4.79-0.46
			c3.24,9.46,4.75,18.04,4.75,18.04S44,76.56,47.24,67.1C45.72,67.39,44.16,67.55,42.57,67.55C42.57,67.55,42.57,67.55,42.57,67.55z
			"/>
		<path class="st1" d="M42.57,67.55L42.57,67.55c0-1.62,0.37-3.15,1.03-4.6c-0.34-0.34-0.68-0.68-1.03-1.02V67.55z"/>
		<polygon class="st1" points="67.49,42.48 67.49,42.48 67.49,42.48 		"/>
		<path class="st1" d="M62.71,43.6c1.5-0.72,3.1-1.12,4.78-1.12h-5.65c-0.04,0.04-0.08,0.08-0.12,0.12
			C62.05,42.93,62.38,43.27,62.71,43.6z"/>
		<path class="st1" d="M23.21,42.48h-5.68c0,0,0,0,0,0c1.67,0.01,3.24,0.4,4.73,1.11c0.34-0.34,0.68-0.69,1.02-1.04
			C23.26,42.53,23.23,42.5,23.21,42.48z"/>
		<path class="st1" d="M42.49,67.48v-5.6c-0.34,0.33-0.68,0.67-1.02,1.01C42.13,64.33,42.49,65.86,42.49,67.48z"/>
		<path class="st1" d="M60.23,24.8l-0.05,0.05c0.02,0.02,0.03,0.03,0.05,0.05l0,0c0,0,0,0,0,0c1.11,1.11,2.12,2.33,3,3.64
			c4.38-8.98,9.37-16.12,9.37-16.12s-7.15,5-16.13,9.38c1.33,0.9,2.57,1.92,3.7,3.05C60.19,24.83,60.22,24.82,60.23,24.8z"/>
		<path class="st1" d="M56.52,63.28c8.97,4.38,16.09,9.36,16.09,9.36s-4.98-7.12-9.36-16.09C61.46,59.19,59.17,61.48,56.52,63.28z"
			/>
		<polygon class="st1" points="60.23,60.15 60.23,60.15 60.23,60.15 		"/>
		<path class="st1" d="M60.23,60.15c-1.13-1.14-1.95-2.47-2.51-3.94c-0.48,0-0.95,0-1.43,0.01L60.23,60.15z"/>
		<path class="st1" d="M57.67,28.99c0.56-1.53,1.39-2.91,2.57-4.09h0l-4.08,4.08C56.66,28.99,57.16,28.99,57.67,28.99z"/>
		<path class="st1" d="M24.88,24.8l0.03,0.03c0,0,0,0,0,0L24.88,24.8C24.88,24.8,24.88,24.8,24.88,24.8
			C24.88,24.8,24.88,24.8,24.88,24.8L24.88,24.8c0.01,0.01,0.02,0.02,0.03,0.02c1.13-1.13,2.37-2.14,3.7-3.04
			c-8.97-4.38-16.1-9.36-16.1-9.36s4.98,7.12,9.35,16.08c0.9-1.32,1.92-2.55,3.05-3.67C24.89,24.82,24.89,24.81,24.88,24.8z"/>
		<path class="st1" d="M60.18,24.85C60.18,24.85,60.18,24.85,60.18,24.85c-1.17,1.14-2.53,1.97-4.05,2.52c0,0.51,0,1.02,0.01,1.52
			L60.18,24.85z"/>
		<path class="st1" d="M28.91,27.35c-1.5-0.55-2.85-1.38-4.01-2.53c0,0,0,0,0,0l4,4C28.91,28.33,28.92,27.84,28.91,27.35z"/>
		<path class="st1" d="M24.88,60.26L24.88,60.26c-1.14-1.14-2.18-2.39-3.09-3.74c-4.4,8.98-9.39,16.11-9.39,16.11
			s7.13-4.99,16.1-9.38C27.2,62.36,25.99,61.36,24.88,60.26C24.88,60.26,24.88,60.26,24.88,60.26z"/>
		<path class="st1" d="M24.88,60.26C24.88,60.26,24.88,60.26,24.88,60.26c1.16-1.16,2.53-2,4.06-2.56c0-0.5,0-0.99-0.01-1.49
			L24.88,60.26z"/>
		<polygon class="st1" points="60.23,60.15 60.23,60.15 60.23,60.15 		"/>
		<path class="st1" d="M56.06,56.22c-0.01,0.45-0.01,0.89-0.01,1.34c1.57,0.56,2.99,1.4,4.18,2.59l-3.94-3.94
			C56.22,56.22,56.14,56.22,56.06,56.22z"/>
		<path class="st1" d="M24.88,60.15l3.96-3.96c-0.48-0.01-0.96-0.01-1.44-0.01C26.84,57.67,26.02,59.01,24.88,60.15z"/>
		<path class="st1" d="M28.91,28.83l-4-4c0,0,0,0,0,0c1.17,1.18,2,2.57,2.55,4.11c0.48,0,0.97,0,1.45-0.01
			C28.91,28.9,28.91,28.86,28.91,28.83z"/>
		<path class="st1" d="M58.73,81.87c0,0-1.87-8.47-2.49-18.41c-2.63,1.73-5.6,2.97-8.79,3.61C54.05,74.54,58.73,81.87,58.73,81.87z"
			/>
		<path class="st1" d="M26.24,3.24c0,0,1.88,8.5,2.49,18.47c2.63-1.74,5.6-3.01,8.8-3.66C30.91,10.58,26.24,3.24,26.24,3.24z"/>
		<path class="st1" d="M3.22,26.26c0,0,7.34,4.68,14.81,11.29c0.65-3.2,1.91-6.17,3.66-8.8C11.72,28.14,3.22,26.26,3.22,26.26z"/>
		<path class="st1" d="M26.26,81.89c0,0,4.68-7.34,11.3-14.83c-3.2-0.65-6.18-1.91-8.81-3.65C28.14,73.38,26.26,81.89,26.26,81.89z"
			/>
		<path class="st1" d="M3.2,58.87c0,0,8.52-1.89,18.5-2.49c-1.75-2.63-3.02-5.61-3.67-8.82C10.55,54.18,3.2,58.87,3.2,58.87z"/>
		<path class="st1" d="M81.86,26.28c0,0-8.49,1.88-18.46,2.51c1.73,2.62,2.99,5.59,3.63,8.77C74.53,30.95,81.86,26.28,81.86,26.28z"
			/>
		<path class="st1" d="M58.84,3.22c0,0-4.67,7.34-11.29,14.84c3.19,0.65,6.15,1.91,8.78,3.65C56.95,11.73,58.84,3.22,58.84,3.22z"/>
		<path class="st1" d="M81.79,58.89c0,0-7.31-4.66-14.77-11.26c-0.66,3.19-1.92,6.15-3.67,8.77C73.3,57.01,81.79,58.89,81.79,58.89z
			"/>
		<path class="st1" d="M57.71,51.13c0.69-1.21,1.23-2.51,1.62-3.88c0.31,0.89,0.63,1.78,0.98,2.67c2.13-0.92,4.32-1.76,6.46-2.5
			c-1.37-1.21-2.73-2.49-4.06-3.82c-1.04,0.5-2.03,1.15-2.99,1.93C59.89,44.54,60,43.53,60,42.5c0-0.01,0-0.01,0-0.02h1.84
			c0,0,0,0,0,0H60c0-1.04-0.11-2.05-0.28-3.04c1,0.82,2.05,1.5,3.15,2c1.3-1.29,2.64-2.54,3.98-3.72c-2.17-0.75-4.39-1.6-6.56-2.54
			c-0.34,0.87-0.65,1.75-0.95,2.62c-0.37-1.33-0.88-2.6-1.54-3.78c0.82,0.4,1.65,0.79,2.49,1.16c0.86-2.18,1.82-4.32,2.81-6.37
			c-1.78,0.11-3.61,0.17-5.44,0.18c-0.4,1.11-0.65,2.31-0.78,3.56c-0.58-0.84-1.23-1.63-1.95-2.35l1.21-1.21c0,0-0.01,0-0.01,0
			c0-0.03,0-0.06,0-0.09l-1.25,1.25c-0.73-0.73-1.53-1.39-2.38-1.99c1.28-0.13,2.5-0.37,3.63-0.78c0.01-1.85,0.07-3.69,0.18-5.49
			c-2.08,1.01-4.25,1.98-6.46,2.86c0.37,0.84,0.76,1.66,1.16,2.48c-1.16-0.65-2.41-1.16-3.72-1.54c0.86-0.3,1.71-0.61,2.57-0.95
			c-0.92-2.13-1.76-4.31-2.5-6.45c-1.18,1.34-2.43,2.67-3.72,3.97c0.49,1.06,1.15,2.06,1.93,3.03c-0.98-0.17-1.97-0.28-3-0.28v-1.69
			c0,0-0.01,0.01-0.01,0.01c-0.02-0.02-0.04-0.04-0.06-0.06V25c-1.05,0-2.07,0.11-3.06,0.29c0.8-0.98,1.48-2.01,1.98-3.08
			c-1.3-1.31-2.56-2.66-3.75-4c-0.75,2.15-1.58,4.34-2.51,6.49c0.87,0.35,1.75,0.67,2.63,0.97c-1.34,0.38-2.62,0.9-3.81,1.57
			c0.4-0.84,0.81-1.68,1.18-2.54c-2.19-0.87-4.35-1.84-6.41-2.84c0.11,1.8,0.17,3.65,0.18,5.5c1.12,0.41,2.33,0.66,3.6,0.79
			c-0.84,0.58-1.62,1.23-2.34,1.95l-1.26-1.26c0,0,0,0,0,0l1.26,1.26c-0.72,0.71-1.37,1.5-1.96,2.33c-0.13-1.22-0.37-2.39-0.75-3.48
			c-1.84,0-3.68-0.06-5.47-0.17c0.99,2.04,1.94,4.17,2.8,6.33c0.83-0.36,1.64-0.75,2.45-1.14c-0.64,1.15-1.16,2.38-1.53,3.67
			c-0.3-0.84-0.59-1.69-0.92-2.53c-2.19,0.95-4.43,1.8-6.63,2.56c1.35,1.2,2.7,2.45,4.01,3.76c1.09-0.5,2.13-1.18,3.12-1.99
			C25.11,40.42,25,41.44,25,42.48h-1.79l0,0H25c0,0.01,0,0.01,0,0.02c0,1.04,0.11,2.05,0.28,3.03c-0.96-0.79-1.97-1.45-3.02-1.95
			c-1.3,1.3-2.64,2.56-3.98,3.75c2.15,0.75,4.34,1.58,6.48,2.51c0.33-0.84,0.63-1.69,0.93-2.54c0.37,1.29,0.88,2.53,1.52,3.68
			c-0.81-0.39-1.62-0.78-2.45-1.14c-0.88,2.23-1.87,4.42-2.89,6.51c1.81-0.11,3.67-0.17,5.53-0.17c0.42-1.12,0.68-2.33,0.82-3.6
			c0.58,0.82,1.22,1.6,1.93,2.3l-1.31,1.31c0.03,0,0.06,0,0.09,0c0,0,0,0.01,0,0.01l1.27-1.27c0.73,0.72,1.53,1.38,2.38,1.97
			c-1.29,0.13-2.51,0.38-3.64,0.79c0,1.82-0.07,3.64-0.17,5.42c2.05-1,4.19-1.96,6.37-2.82c-0.37-0.86-0.77-1.69-1.17-2.53
			c1.18,0.66,2.45,1.18,3.77,1.56c-0.87,0.31-1.74,0.63-2.6,0.97c0.95,2.19,1.8,4.43,2.55,6.63c1.2-1.36,2.47-2.71,3.79-4.03
			c-0.5-1.1-1.18-2.16-2-3.17c0.98,0.17,1.99,0.28,3.02,0.28v1.88c0,0,0.01-0.01,0.01-0.01c0.02,0.02,0.04,0.04,0.06,0.06V60
			c1.06,0,2.1-0.11,3.1-0.3c-0.85,1.03-1.56,2.11-2.08,3.25c1.29,1.3,2.53,2.63,3.71,3.96c0.75-2.18,1.6-4.41,2.54-6.59
			c-0.89-0.35-1.78-0.66-2.67-0.97c1.36-0.38,2.65-0.9,3.85-1.57c-0.4,0.84-0.81,1.68-1.18,2.54c2.18,0.86,4.32,1.82,6.37,2.81
			c-0.11-1.82-0.17-3.7-0.17-5.57c-1.09-0.39-2.26-0.63-3.49-0.75c0.84-0.59,1.64-1.25,2.36-1.98l1.38,1.38c0,0,0,0,0,0l-1.38-1.38
			c0.73-0.73,1.39-1.53,1.97-2.38c0.13,1.33,0.4,2.59,0.84,3.76c1.84,0.01,3.67,0.07,5.45,0.18c-1.01-2.08-1.99-4.26-2.86-6.47
			C59.43,50.3,58.57,50.71,57.71,51.13z"/>
	</g>
	<g class="st0">
		<g class="st2">
			<path class="st3" d="M56.47,21.8c-0.05-0.03-0.1-0.06-0.14-0.09c0,0.06-0.01,0.11-0.01,0.17C56.37,21.85,56.42,21.83,56.47,21.8z
				"/>
			<path class="st3" d="M21.7,56.37c0.03,0.05,0.06,0.1,0.09,0.14c0.03-0.05,0.05-0.1,0.08-0.15C21.81,56.37,21.75,56.37,21.7,56.37
				z"/>
			<path class="st3" d="M37.56,67.06c0.06,0.01,0.12,0.02,0.18,0.03c-0.02-0.06-0.04-0.11-0.06-0.17
				C37.64,66.97,37.6,67.01,37.56,67.06z"/>
			<path class="st3" d="M28.5,63.25c0.08,0.06,0.17,0.11,0.25,0.16c0.01-0.1,0.01-0.19,0.02-0.29C28.68,63.16,28.59,63.2,28.5,63.25
				z"/>
			<path class="st3" d="M63.4,28.79c-0.05-0.08-0.11-0.17-0.16-0.25c-0.04,0.09-0.09,0.18-0.13,0.27C63.2,28.8,63.3,28.8,63.4,28.79
				z"/>
			<path class="st3" d="M67.01,47.63c0.02-0.1,0.04-0.21,0.06-0.32c-0.1,0.03-0.2,0.07-0.3,0.1C66.85,47.49,66.93,47.56,67.01,47.63
				z"/>
			<path class="st3" d="M47.55,18.06c-0.1-0.02-0.2-0.03-0.29-0.05c0.03,0.09,0.06,0.18,0.09,0.28
				C47.42,18.21,47.49,18.13,47.55,18.06z"/>
			<path class="st3" d="M28.73,21.71c-0.04,0.03-0.08,0.05-0.12,0.08c0.04,0.02,0.09,0.04,0.13,0.06
				C28.73,21.8,28.73,21.76,28.73,21.71z"/>
			<path class="st3" d="M21.85,28.5c-0.06,0.08-0.11,0.17-0.17,0.25c0.1,0.01,0.2,0.01,0.3,0.02C21.94,28.68,21.9,28.59,21.85,28.5z
				"/>
			<path class="st3" d="M18.03,37.55c-0.01,0.05-0.02,0.11-0.03,0.16c0.05-0.02,0.1-0.03,0.15-0.05
				C18.11,37.63,18.07,37.59,18.03,37.55z"/>
			<path class="st3" d="M37.72,18.02c-0.06,0.01-0.13,0.02-0.19,0.03c0.04,0.05,0.08,0.1,0.13,0.15
				C37.68,18.14,37.7,18.08,37.72,18.02z"/>
			<path class="st3" d="M63.18,56.39c0.03,0.05,0.05,0.1,0.08,0.16c0.03-0.05,0.06-0.1,0.09-0.15
				C63.29,56.39,63.23,56.39,63.18,56.39z"/>
			<path class="st3" d="M56.24,63.46c0.09-0.06,0.19-0.12,0.28-0.18c-0.1-0.05-0.2-0.1-0.3-0.15
				C56.23,63.24,56.23,63.35,56.24,63.46z"/>
			<path class="st3" d="M17.97,47.23c0.02,0.11,0.04,0.22,0.06,0.32c0.08-0.07,0.16-0.15,0.25-0.22
				C18.17,47.3,18.07,47.27,17.97,47.23z"/>
			<path class="st3" d="M67.07,37.8c-0.01-0.08-0.03-0.16-0.04-0.23c-0.06,0.05-0.12,0.1-0.18,0.16C66.92,37.75,67,37.77,67.07,37.8
				z"/>
			<path class="st3" d="M47.24,67.1c0.07-0.01,0.14-0.02,0.21-0.04c-0.05-0.05-0.09-0.11-0.14-0.16
				C47.28,66.97,47.26,67.04,47.24,67.1z"/>
			<path class="st3" d="M42.49,17.48v0.07c0.01,0,0.02,0,0.04,0s0.02,0,0.04,0v0c0,0,0,0,0,0c1.61,0,3.17,0.16,4.7,0.45
				c-3.25-9.45-4.77-18.03-4.77-18.03s-1.52,8.59-4.77,18.04c1.54-0.3,3.14-0.46,4.77-0.47C42.49,17.53,42.49,17.51,42.49,17.48z"/>
			<path class="st3" d="M67.07,47.31c9.44-3.25,17.99-4.76,17.99-4.76s-8.56-1.51-17.99-4.76c0.3,1.54,0.46,3.13,0.46,4.76
				S67.37,45.77,67.07,47.31z"/>
			<path class="st3" d="M43.64,22.25c-0.69-1.48-1.07-3.04-1.07-4.7h0v5.76C42.93,22.97,43.28,22.61,43.64,22.25z"/>
			<path class="st3" d="M61.84,42.48h5.65c-1.63,0-3.17-0.37-4.62-1.03C62.52,41.79,62.18,42.13,61.84,42.48z"/>
			<path class="st3" d="M17.53,42.48c-0.01,0-0.02,0-0.04,0h0c0,0,0,0,0,0c0,0,0,0,0,0h0C17.51,42.48,17.52,42.48,17.53,42.48
				c0-1.63,0.17-3.22,0.47-4.76c-9.44,3.25-18.01,4.76-18.01,4.76s8.55,1.51,17.98,4.75c-0.29-1.52-0.44-3.08-0.44-4.68
				C17.53,42.53,17.53,42.51,17.53,42.48z"/>
			<path class="st3" d="M42.49,23.27v-5.72c0,0,0,0,0,0c-0.01,1.64-0.39,3.18-1.08,4.65C41.77,22.56,42.13,22.92,42.49,23.27z"/>
			<path class="st3" d="M23.21,42.48c-0.34-0.36-0.69-0.71-1.05-1.06c-1.46,0.68-3,1.05-4.63,1.05c0,0,0,0,0,0H23.21z"/>
			<path class="st3" d="M42.57,67.55L42.57,67.55c-0.01,0-0.02,0-0.04,0c-1.64,0-3.24-0.16-4.79-0.46
				c3.24,9.46,4.75,18.04,4.75,18.04S44,76.56,47.24,67.1C45.72,67.39,44.16,67.55,42.57,67.55C42.57,67.55,42.57,67.55,42.57,67.55
				z"/>
			<path class="st3" d="M42.57,61.93v5.62h0c0-1.62,0.37-3.15,1.03-4.6C43.25,62.61,42.91,62.27,42.57,61.93z"/>
			<polygon class="st3" points="67.49,42.48 67.49,42.48 67.49,42.48 			"/>
			<path class="st3" d="M61.73,42.6c0.32,0.34,0.65,0.67,0.98,1c1.5-0.72,3.1-1.12,4.78-1.12h-5.65
				C61.8,42.52,61.76,42.56,61.73,42.6z"/>
			<path class="st3" d="M23.28,42.55c-0.02-0.02-0.05-0.05-0.07-0.07h-5.68c0,0,0,0,0,0c1.67,0.01,3.24,0.4,4.73,1.11
				C22.6,43.25,22.94,42.9,23.28,42.55z"/>
			<path class="st3" d="M41.47,62.89c0.66,1.45,1.02,2.98,1.02,4.59v-5.6C42.15,62.21,41.81,62.55,41.47,62.89z"/>
			<polygon class="st3" points="17.53,42.48 17.49,42.48 17.49,42.48 17.49,42.48 17.53,42.48 			"/>
			<path class="st3" d="M60.23,24.8l-0.05,0.05c0.02,0.02,0.03,0.03,0.05,0.05l0,0c0,0,0,0,0,0c1.11,1.11,2.12,2.33,3,3.64
				c4.38-8.98,9.37-16.12,9.37-16.12s-7.15,5-16.13,9.38c1.33,0.9,2.57,1.92,3.7,3.05C60.19,24.83,60.22,24.82,60.23,24.8z"/>
			<path class="st3" d="M56.52,63.28c8.97,4.38,16.09,9.36,16.09,9.36s-4.98-7.12-9.36-16.09C61.46,59.19,59.17,61.48,56.52,63.28z"
				/>
			<polygon class="st3" points="60.23,60.15 60.23,60.15 60.23,60.15 			"/>
			<path class="st3" d="M56.3,56.22l3.94,3.94c-1.13-1.14-1.95-2.47-2.51-3.94C57.25,56.21,56.77,56.21,56.3,56.22z"/>
			<path class="st3" d="M57.67,28.99c0.56-1.53,1.39-2.91,2.57-4.09h0l-4.08,4.08C56.66,28.99,57.16,28.99,57.67,28.99z"/>
			<path class="st3" d="M24.9,24.83c-0.01-0.01-0.02-0.02-0.02-0.03l0,0c0,0,0,0,0,0c0,0,0,0,0,0l0,0
				C24.89,24.81,24.9,24.81,24.9,24.83c1.14-1.13,2.38-2.15,3.71-3.04c-8.97-4.38-16.1-9.36-16.1-9.36s4.98,7.12,9.35,16.08
				C22.75,27.18,23.77,25.95,24.9,24.83z"/>
			<path class="st3" d="M56.14,28.89l4.04-4.04c0,0,0,0,0,0c-1.16,1.15-2.53,1.97-4.04,2.52C56.13,27.88,56.13,28.38,56.14,28.89z"
				/>
			<path class="st3" d="M28.91,28.83c0.01-0.49,0.01-0.98,0.01-1.48c-1.5-0.55-2.85-1.38-4.01-2.53c0,0,0,0,0,0L28.91,28.83z"/>
			<path class="st3" d="M24.88,60.26L24.88,60.26c-1.14-1.14-2.18-2.39-3.09-3.74c-4.4,8.98-9.39,16.11-9.39,16.11
				s7.13-4.99,16.1-9.38C27.2,62.36,25.99,61.36,24.88,60.26C24.88,60.26,24.88,60.26,24.88,60.26z"/>
			<path class="st3" d="M28.93,56.21l-4.05,4.05c0,0,0,0,0,0c1.16-1.16,2.53-2,4.06-2.56C28.94,57.2,28.93,56.71,28.93,56.21z"/>
			<polygon class="st3" points="60.23,60.15 60.23,60.15 60.23,60.15 			"/>
			<path class="st3" d="M56.06,56.22c-0.01,0.45-0.01,0.89-0.01,1.34c1.57,0.56,2.99,1.4,4.18,2.59l-3.94-3.94
				C56.22,56.22,56.14,56.22,56.06,56.22z"/>
			<path class="st3" d="M27.4,56.19c-0.56,1.49-1.38,2.82-2.52,3.96l3.96-3.96C28.36,56.19,27.88,56.19,27.4,56.19z"/>
			<path class="st3" d="M28.91,28.93c0-0.03,0-0.07,0-0.1l-4-4c0,0,0,0,0,0c1.17,1.18,2,2.57,2.55,4.11
				C27.94,28.94,28.42,28.94,28.91,28.93z"/>
			<polygon class="st3" points="24.9,24.83 24.88,24.8 24.88,24.8 24.88,24.8 24.9,24.83 			"/>
			<path class="st3" d="M58.73,81.87c0,0-1.87-8.47-2.49-18.41c-2.63,1.73-5.6,2.97-8.79,3.61C54.05,74.54,58.73,81.87,58.73,81.87z
				"/>
			<path class="st3" d="M26.24,3.24c0,0,1.88,8.5,2.49,18.47c2.63-1.74,5.6-3.01,8.8-3.66C30.91,10.58,26.24,3.24,26.24,3.24z"/>
			<path class="st3" d="M3.22,26.26c0,0,7.34,4.68,14.81,11.29c0.65-3.2,1.91-6.17,3.66-8.8C11.72,28.14,3.22,26.26,3.22,26.26z"/>
			<path class="st3" d="M26.26,81.89c0,0,4.68-7.34,11.3-14.83c-3.2-0.65-6.18-1.91-8.81-3.65C28.14,73.38,26.26,81.89,26.26,81.89z
				"/>
			<path class="st3" d="M3.2,58.87c0,0,8.52-1.89,18.5-2.49c-1.75-2.63-3.02-5.61-3.67-8.82C10.55,54.18,3.2,58.87,3.2,58.87z"/>
			<path class="st3" d="M81.86,26.28c0,0-8.49,1.88-18.46,2.51c1.73,2.62,2.99,5.59,3.63,8.77C74.53,30.95,81.86,26.28,81.86,26.28z
				"/>
			<path class="st3" d="M58.84,3.22c0,0-4.67,7.34-11.29,14.84c3.19,0.65,6.15,1.91,8.78,3.65C56.95,11.73,58.84,3.22,58.84,3.22z"
				/>
			<path class="st3" d="M81.79,58.89c0,0-7.31-4.66-14.77-11.26c-0.66,3.19-1.92,6.15-3.67,8.77C73.3,57.01,81.79,58.89,81.79,58.89
				z"/>
			<path class="st3" d="M42.57,27.13v-3.81c0,0-0.01,0.01-0.01,0.01c-0.02-0.02-0.04-0.04-0.06-0.06v3.84
				c0.02,0.01,0.04,0.01,0.06,0.02C42.56,27.13,42.56,27.13,42.57,27.13z"/>
			<path class="st3" d="M49.86,24.73c-0.92-2.13-1.76-4.31-2.5-6.45c-1.18,1.34-2.43,2.67-3.72,3.97c0.62,1.34,1.5,2.6,2.58,3.8
				C47.43,25.65,48.65,25.21,49.86,24.73z"/>
			<path class="st3" d="M41.41,22.2c-1.3-1.31-2.56-2.66-3.75-4c-0.75,2.15-1.58,4.34-2.51,6.49c1.21,0.48,2.44,0.93,3.66,1.33
				C39.89,24.82,40.78,23.55,41.41,22.2z"/>
			<path class="st3" d="M60.31,49.92c2.13-0.92,4.32-1.76,6.46-2.5c-1.37-1.21-2.73-2.49-4.06-3.82c-1.32,0.63-2.57,1.51-3.75,2.58
				C59.37,47.43,59.82,48.68,60.31,49.92z"/>
			<path class="st3" d="M62.87,41.45c1.3-1.29,2.64-2.54,3.98-3.72c-2.17-0.75-4.39-1.6-6.56-2.54c-0.48,1.21-0.92,2.42-1.32,3.64
				C60.2,39.92,61.5,40.82,62.87,41.45z"/>
			<path class="st3" d="M22.26,43.59c-1.3,1.3-2.64,2.56-3.98,3.75c2.15,0.75,4.34,1.58,6.48,2.51c0.48-1.2,0.92-2.42,1.32-3.63
				C24.88,45.12,23.61,44.23,22.26,43.59z"/>
			<path class="st3" d="M24.78,35.1c-2.19,0.95-4.43,1.8-6.63,2.56c1.35,1.2,2.7,2.45,4.01,3.76c1.39-0.64,2.7-1.56,3.94-2.69
				C25.7,37.52,25.26,36.3,24.78,35.1z"/>
			<path class="st3" d="M42.49,57.91v3.97c0,0,0.01-0.01,0.01-0.01c0.02,0.02,0.04,0.04,0.06,0.06v-4
				C42.54,57.92,42.52,57.92,42.49,57.91z"/>
			<path class="st3" d="M43.59,62.95c1.29,1.3,2.53,2.63,3.71,3.96c0.75-2.18,1.6-4.41,2.54-6.59c-1.19-0.47-2.39-0.91-3.59-1.3
				C45.13,60.25,44.23,61.56,43.59,62.95z"/>
			<polygon class="st3" points="61.84,42.48 61.84,42.48 57.9,42.48 57.9,42.48 			"/>
			<path class="st3" d="M35.13,60.3c0.95,2.19,1.8,4.43,2.55,6.63c1.2-1.36,2.47-2.71,3.79-4.03c-0.63-1.39-1.54-2.7-2.65-3.94
				C37.58,59.36,36.35,59.81,35.13,60.3z"/>
			<polygon class="st3" points="23.21,42.48 23.21,42.48 27.19,42.48 27.19,42.48 			"/>
			<path class="st3" d="M53.42,31.71l2.73-2.73c0,0-0.01,0-0.01,0c0-0.03,0-0.06,0-0.09l-2.78,2.78c0,0,0,0.01,0.01,0.01
				C53.38,31.69,53.4,31.7,53.42,31.71z"/>
			<path class="st3" d="M60.3,35.18c0.86-2.18,1.82-4.32,2.81-6.37c-1.78,0.11-3.61,0.17-5.44,0.18c-0.51,1.4-0.78,2.94-0.86,4.57
				C57.94,34.13,59.11,34.67,60.3,35.18z"/>
			<path class="st3" d="M57.9,42.48c0.31-1.21,0.67-2.44,1.08-3.66c-0.73-0.66-1.43-1.38-2.11-2.17c0.15,1.88,0.5,3.84,1.01,5.83
				H57.9z"/>
			<path class="st3" d="M42.65,42.48L53.4,31.74c-0.01-0.02-0.02-0.04-0.03-0.06c0,0-0.01,0-0.01-0.01L42.57,42.46v0.02H42.65z"/>
			<rect x="42.56" y="42.48" class="st3" width="0.01" height="0"/>
			<polygon class="st3" points="42.57,42.49 42.61,42.53 42.65,42.48 42.57,42.48 			"/>
			<path class="st3" d="M57.89,42.53c0-0.02,0.01-0.03,0.01-0.05h-0.02C57.88,42.5,57.89,42.51,57.89,42.53z"/>
			<path class="st3" d="M56.13,27.37c0.01-1.85,0.07-3.69,0.18-5.49c-2.08,1.01-4.25,1.98-6.46,2.86c0.51,1.19,1.06,2.36,1.63,3.5
				C53.14,28.16,54.71,27.89,56.13,27.37z"/>
			<path class="st3" d="M48.37,28.15c-0.79-0.67-1.51-1.37-2.16-2.1c-1.22,0.41-2.44,0.76-3.65,1.07v0.01
				C44.55,27.64,46.5,27.99,48.37,28.15z"/>
			<path class="st3" d="M49.84,60.32c2.18,0.86,4.32,1.82,6.37,2.81c-0.11-1.82-0.17-3.7-0.17-5.57c-1.4-0.49-2.92-0.76-4.54-0.83
				C50.92,57.9,50.37,59.1,49.84,60.32z"/>
			<path class="st3" d="M42.57,57.93c1.22,0.31,2.45,0.67,3.68,1.08c0.69-0.77,1.46-1.51,2.31-2.22c-1.93,0.15-3.94,0.52-5.99,1.04
				V57.93z"/>
			<path class="st3" d="M42.39,57.88c0.03,0.01,0.07,0.02,0.1,0.03v-0.05C42.46,57.87,42.42,57.88,42.39,57.88z"/>
			<path class="st3" d="M56.81,51.55c0.09,1.66,0.37,3.23,0.91,4.66c1.84,0.01,3.67,0.07,5.45,0.18c-1.01-2.08-1.99-4.26-2.86-6.47
				C59.13,50.43,57.95,50.98,56.81,51.55z"/>
			<path class="st3" d="M56.88,48.33c0.67-0.78,1.36-1.5,2.08-2.15c-0.4-1.22-0.76-2.44-1.07-3.65
				C57.39,44.51,57.03,46.46,56.88,48.33z"/>
			<path class="st3" d="M56.88,48.33c-1.25,1.47-2.42,3.15-3.5,4.97l0.08,0.08c1.08-0.64,2.2-1.25,3.36-1.83
				C56.76,50.51,56.78,49.43,56.88,48.33z"/>
			<path class="st3" d="M56.87,36.65c-0.09-1.06-0.11-2.09-0.06-3.09c-1.17-0.58-2.3-1.2-3.39-1.84l-0.02,0.02
				C54.47,33.53,55.63,35.19,56.87,36.65z"/>
			<polygon class="st3" points="57.88,42.48 57.88,42.48 42.65,42.48 42.65,42.48 			"/>
			<path class="st3" d="M27.46,28.94c-1.84,0-3.68-0.06-5.47-0.17c0.99,2.04,1.94,4.17,2.8,6.33c1.19-0.52,2.37-1.06,3.51-1.64
				C28.22,31.85,27.95,30.33,27.46,28.94z"/>
			<path class="st3" d="M26.1,38.73c0.41,1.24,0.78,2.48,1.09,3.71c0.52-2.03,0.88-4.02,1.03-5.92
				C27.55,37.32,26.84,38.06,26.1,38.73z"/>
			<path class="st3" d="M35.15,24.69c-2.19-0.87-4.35-1.84-6.41-2.84c0.11,1.8,0.17,3.65,0.18,5.5c1.41,0.52,2.96,0.79,4.59,0.87
				C34.08,27.07,34.63,25.89,35.15,24.69z"/>
			<path class="st3" d="M42.49,27.11c-1.22-0.31-2.45-0.68-3.69-1.09c-0.67,0.74-1.41,1.45-2.22,2.14c1.9-0.15,3.88-0.51,5.9-1.02
				V27.11z"/>
			<path class="st3" d="M42.57,42.46V27.13c0,0-0.01,0-0.01,0c-0.02,0.01-0.04,0.01-0.06,0.02v15.27l0.06,0.06L42.57,42.46z"/>
			<path class="st3" d="M53.36,31.67c-0.66-1.1-1.28-2.26-1.87-3.44c-1,0.05-2.05,0.01-3.11-0.08
				C49.84,29.41,51.53,30.59,53.36,31.67L53.36,31.67z"/>
			<path class="st3" d="M36.59,28.16c-1.06,0.09-2.09,0.11-3.08,0.06c-0.58,1.16-1.19,2.29-1.83,3.37l0.02,0.02
				C33.48,30.55,35.14,29.4,36.59,28.16z"/>
			<path class="st3" d="M31.66,53.38l-2.82,2.82c0.03,0,0.06,0,0.09,0c0,0,0,0.01,0,0.01l2.77-2.77
				C31.68,53.42,31.67,53.4,31.66,53.38z"/>
			<path class="st3" d="M28.93,57.7c0,1.82-0.07,3.64-0.17,5.42c2.05-1,4.19-1.96,6.37-2.82c-0.51-1.17-1.04-2.33-1.6-3.46
				C31.89,56.91,30.34,57.18,28.93,57.7z"/>
			
				<rect x="42.56" y="42.48" transform="matrix(0.7071 -0.7071 0.7071 0.7071 -17.5739 42.5332)" class="st3" width="0" height="0.01"/>
			<polygon class="st3" points="42.57,42.55 42.57,42.57 42.61,42.53 42.57,42.49 			"/>
			<path class="st3" d="M38.82,58.95c1.2-0.4,2.39-0.76,3.57-1.06c-1.94-0.49-3.85-0.83-5.68-0.98
				C37.47,57.56,38.18,58.24,38.82,58.95z"/>
			<path class="st3" d="M31.68,53.35c0.02,0.01,0.04,0.03,0.07,0.04l10.74-10.74v-0.1L31.68,53.35z"/>
			
				<rect x="42.56" y="42.47" transform="matrix(0.7071 -0.7071 0.7071 0.7071 -17.5716 42.5341)" class="st3" width="0" height="0.01"/>
			
				<rect x="42.56" y="42.48" transform="matrix(0.7071 -0.7071 0.7071 0.7071 -17.5739 42.5395)" class="st3" width="0" height="0.01"/>
			<path class="st3" d="M42.49,42.64v15.22c0.02-0.01,0.05-0.01,0.07-0.02V42.57l-0.01,0.01L42.49,42.64z"/>
			<path class="st3" d="M51.51,56.73c0.56-1.12,1.15-2.2,1.76-3.25c-1.72,1.03-3.31,2.13-4.71,3.31
				C49.57,56.72,50.55,56.69,51.51,56.73z"/>
			<path class="st3" d="M31.69,53.44c0.64,1.09,1.25,2.22,1.83,3.39c1.03-0.05,2.09-0.02,3.18,0.07c-1.47-1.26-3.14-2.43-4.96-3.52
				L31.69,53.44z"/>
			<path class="st3" d="M53.27,53.48c0.06-0.04,0.12-0.07,0.19-0.11l-0.08-0.08C53.34,53.36,53.3,53.42,53.27,53.48z"/>
			<polygon class="st3" points="56.3,56.22 56.3,56.22 53.45,53.37 53.45,53.37 			"/>
			<polygon class="st3" points="42.61,42.53 42.61,42.53 53.38,53.3 53.38,53.3 			"/>
			<path class="st3" d="M24.76,49.85c-0.88,2.23-1.87,4.42-2.89,6.51c1.81-0.11,3.67-0.17,5.53-0.17c0.54-1.43,0.82-3.01,0.91-4.69
				C27.15,50.92,25.96,50.37,24.76,49.85z"/>
			<path class="st3" d="M27.2,42.44c0,0.01-0.01,0.03-0.01,0.04h0.02C27.21,42.47,27.2,42.45,27.2,42.44z"/>
			<path class="st3" d="M27.19,42.48c-0.32,1.24-0.69,2.49-1.11,3.74c0.75,0.68,1.47,1.44,2.17,2.27c-0.15-1.93-0.51-3.95-1.04-6.01
				H27.19z"/>
			<polygon class="st3" points="42.56,42.48 42.49,42.41 42.49,42.48 42.55,42.48 			"/>
			<path class="st3" d="M31.67,31.59c-0.01,0.01-0.02,0.03-0.02,0.04c0.01-0.01,0.03-0.02,0.04-0.02L31.67,31.59z"/>
			<path class="st3" d="M28.3,51.5c1.14,0.57,2.25,1.17,3.31,1.8c-1.04-1.75-2.16-3.38-3.37-4.82C28.33,49.52,28.35,50.53,28.3,51.5
				z"/>
			<path class="st3" d="M28.29,33.46c0.05,0.98,0.02,2-0.06,3.05c1.22-1.45,2.36-3.1,3.42-4.88C30.57,32.27,29.45,32.88,28.29,33.46
				z"/>
			<polygon class="st3" points="42.49,42.48 42.49,42.54 42.55,42.48 			"/>
			<path class="st3" d="M31.61,53.31c0.01,0.02,0.03,0.05,0.04,0.07l0.03-0.03C31.66,53.33,31.64,53.32,31.61,53.31z"/>
			
				<rect x="27.21" y="42.48" transform="matrix(0.7071 -0.7071 0.7071 0.7071 -19.8304 37.0854)" class="st3" width="15.28" height="0"/>
			<polygon class="st3" points="31.67,31.59 28.91,28.83 28.91,28.83 31.67,31.59 			"/>
			<polygon class="st3" points="42.49,42.41 31.69,31.61 31.69,31.61 42.49,42.41 			"/>
		</g>
		<circle class="st1" cx="42.5" cy="42.5" r="17.5"/>
	</g>
	<g>
		<path class="st3" d="M69.77,54.21c0.69,0.33,1.17,1.03,1.18,1.85c0.58-1.1,1.11-2.24,1.56-3.41
			C71.62,53.22,70.71,53.73,69.77,54.21z"/>
		<path class="st3" d="M66.81,56.07c0-0.2,0.04-0.39,0.09-0.58c-3.18,1.2-6.62,1.87-10.22,1.87c-0.5,0-1-0.01-1.5-0.04
			c0.1,0.25,0.16,0.52,0.16,0.8c0,1.14-0.93,2.07-2.07,2.07c-1.14,0-2.07-0.93-2.07-2.07c0-0.46,0.15-0.87,0.4-1.21
			c-3.45-0.61-6.69-1.83-9.6-3.55c-9.91,5.3-18.47-1.66-18.47-1.66c6.97,0.07,10.39-1.76,12.08-3.44
			c-4.89-5.18-7.89-12.16-7.89-19.85c0-5.84,1.74-11.27,4.71-15.82c-4.92,1.89-9.24,4.99-12.58,8.94c0.36,0.37,0.58,0.88,0.58,1.44
			c0,1.14-0.93,2.07-2.07,2.07c-0.34,0-0.66-0.09-0.94-0.24c-3.11,4.83-4.92,10.59-4.92,16.76c0,0.65,0.03,1.29,0.07,1.93
			c1.11,0.04,2,0.94,2,2.06c0,0.94-0.63,1.72-1.49,1.98c0.8,4.09,2.39,7.89,4.63,11.24c0.98,0.17,1.72,1.01,1.72,2.03
			c0,0.09-0.02,0.18-0.03,0.27c3.47,4.29,8.06,7.63,13.33,9.59c0.33-0.7,1.04-1.19,1.87-1.19c1.14,0,2.07,0.93,2.07,2.07
			c0,0.1-0.02,0.19-0.03,0.28c2.22,0.5,4.52,0.78,6.89,0.78c3.26,0,6.41-0.51,9.36-1.44c-0.53-0.37-0.88-0.99-0.88-1.69
			c0-1.14,0.93-2.07,2.07-2.07c1.14,0,2.07,0.93,2.07,2.07c0,0.16-0.02,0.32-0.06,0.48c5.74-2.55,10.56-6.78,13.84-12.08
			c-0.31,0.18-0.66,0.3-1.05,0.3C67.73,58.14,66.81,57.21,66.81,56.07z M20.43,41.72c0-1.71,1.39-3.1,3.1-3.1
			c1.71,0,3.1,1.39,3.1,3.1c0,1.71-1.39,3.1-3.1,3.1C21.82,44.83,20.43,43.44,20.43,41.72z"/>
	</g>
</g>
<g id="Layer_2">
</g>
</svg>
