<?xml version="1.0" encoding="utf-8"?>
<!-- Generator: Adobe Illustrator 25.2.3, SVG Export Plug-In . SVG Version: 6.00 Build 0)  -->
<svg version="1.1" xmlns="http://www.w3.org/2000/svg" xmlns:xlink="http://www.w3.org/1999/xlink" x="0px" y="0px"
	 viewBox="0 0 85 85" style="enable-background:new 0 0 85 85;" xml:space="preserve">
<style type="text/css">
	.st0{display:none;}
	.st1{display:inline;fill:#FFFFFF;}
	.st2{display:inline;}
	.st3{fill:#FFFFFF;}
</style>
<g id="Layer_1">
	<g class="st0">
		<path class="st1" d="M56.48,21.8c-0.05-0.03-0.1-0.06-0.14-0.09c0,0.06-0.01,0.11-0.01,0.17C56.37,21.85,56.43,21.83,56.48,21.8z"
			/>
		<path class="st1" d="M21.7,56.37c0.03,0.05,0.06,0.1,0.09,0.14c0.03-0.05,0.05-0.1,0.08-0.15C21.81,56.37,21.76,56.37,21.7,56.37z
			"/>
		<path class="st1" d="M37.57,67.06c0.06,0.01,0.12,0.02,0.18,0.03c-0.02-0.06-0.04-0.11-0.06-0.17
			C37.65,66.97,37.61,67.01,37.57,67.06z"/>
		<path class="st1" d="M28.5,63.25c0.08,0.06,0.17,0.11,0.25,0.16c0.01-0.1,0.01-0.19,0.02-0.29C28.68,63.16,28.59,63.2,28.5,63.25z
			"/>
		<path class="st1" d="M63.4,28.79c-0.05-0.08-0.11-0.17-0.16-0.25c-0.04,0.09-0.09,0.18-0.13,0.27C63.21,28.8,63.3,28.8,63.4,28.79
			z"/>
		<path class="st1" d="M67.02,47.63c0.02-0.1,0.04-0.21,0.06-0.32c-0.1,0.03-0.2,0.07-0.3,0.1C66.86,47.49,66.94,47.56,67.02,47.63z
			"/>
		<path class="st1" d="M47.56,18.06c-0.1-0.02-0.2-0.03-0.29-0.05c0.03,0.09,0.06,0.18,0.09,0.28
			C47.43,18.21,47.49,18.13,47.56,18.06z"/>
		<path class="st1" d="M28.73,21.71c-0.04,0.03-0.08,0.05-0.12,0.08c0.04,0.02,0.09,0.04,0.13,0.06
			C28.74,21.8,28.73,21.76,28.73,21.71z"/>
		<path class="st1" d="M21.86,28.5c-0.06,0.08-0.11,0.17-0.17,0.25c0.1,0.01,0.2,0.01,0.3,0.02C21.94,28.68,21.9,28.59,21.86,28.5z"
			/>
		<path class="st1" d="M18.03,37.55c-0.01,0.05-0.02,0.11-0.03,0.16c0.05-0.02,0.1-0.03,0.15-0.05
			C18.12,37.63,18.08,37.59,18.03,37.55z"/>
		<path class="st1" d="M37.72,18.02c-0.06,0.01-0.13,0.02-0.19,0.03c0.04,0.05,0.08,0.1,0.13,0.15
			C37.68,18.14,37.7,18.08,37.72,18.02z"/>
		<path class="st1" d="M63.18,56.39c0.03,0.05,0.05,0.1,0.08,0.16c0.03-0.05,0.06-0.1,0.09-0.15
			C63.29,56.39,63.24,56.39,63.18,56.39z"/>
		<path class="st1" d="M56.24,63.46c0.09-0.06,0.19-0.12,0.28-0.18c-0.1-0.05-0.2-0.1-0.3-0.15C56.23,63.24,56.24,63.35,56.24,63.46
			z"/>
		<path class="st1" d="M17.98,47.23c0.02,0.11,0.04,0.22,0.06,0.32c0.08-0.07,0.16-0.15,0.25-0.22
			C18.18,47.3,18.08,47.27,17.98,47.23z"/>
		<path class="st1" d="M67.08,37.8c-0.01-0.08-0.03-0.16-0.04-0.23c-0.06,0.05-0.12,0.1-0.18,0.16C66.93,37.75,67,37.77,67.08,37.8z
			"/>
		<path class="st1" d="M47.24,67.1c0.07-0.01,0.14-0.02,0.21-0.04c-0.05-0.05-0.09-0.11-0.14-0.16
			C47.29,66.97,47.27,67.04,47.24,67.1z"/>
		<path class="st1" d="M42.5,17.48v0.07c0.01,0,0.02,0,0.04,0s0.02,0,0.04,0v0c0,0,0,0,0,0c1.61,0,3.17,0.16,4.7,0.45
			C44.01,8.56,42.5-0.02,42.5-0.02s-1.52,8.59-4.77,18.04c1.54-0.3,3.14-0.46,4.77-0.47C42.49,17.53,42.5,17.51,42.5,17.48z"/>
		<path class="st1" d="M67.08,47.31c9.44-3.25,17.99-4.76,17.99-4.76s-8.56-1.51-17.99-4.76c0.3,1.54,0.46,3.13,0.46,4.76
			S67.37,45.77,67.08,47.31z"/>
		<path class="st1" d="M43.64,22.25c-0.69-1.48-1.07-3.04-1.07-4.7h0v5.76C42.93,22.97,43.29,22.61,43.64,22.25z"/>
		<path class="st1" d="M67.49,42.48c-1.63,0-3.17-0.37-4.62-1.03c-0.35,0.34-0.69,0.69-1.03,1.03H67.49z"/>
		<path class="st1" d="M17.53,42.48c-0.01,0-0.02,0-0.04,0L17.53,42.48L17.53,42.48l-0.04,0c0,0,0,0,0,0c0,0,0,0,0,0h0
			C17.51,42.48,17.52,42.48,17.53,42.48c0-1.63,0.17-3.22,0.47-4.76C8.56,40.97,0,42.48,0,42.48s8.55,1.51,17.98,4.75
			c-0.29-1.52-0.44-3.08-0.44-4.68C17.53,42.53,17.53,42.51,17.53,42.48z"/>
		<path class="st1" d="M42.5,17.55C42.5,17.55,42.49,17.55,42.5,17.55c-0.01,1.64-0.4,3.18-1.08,4.65c0.36,0.36,0.72,0.72,1.08,1.07
			V17.55z"/>
		<path class="st1" d="M22.17,41.42c-1.46,0.68-3,1.05-4.63,1.05c0,0,0,0,0,0h5.68C22.87,42.12,22.52,41.77,22.17,41.42z"/>
		<path class="st1" d="M42.57,67.55L42.57,67.55c-0.01,0-0.02,0-0.04,0c-1.64,0-3.24-0.16-4.79-0.46
			c3.24,9.46,4.75,18.04,4.75,18.04S44,76.56,47.24,67.1C45.73,67.39,44.17,67.55,42.57,67.55C42.57,67.55,42.57,67.55,42.57,67.55z
			"/>
		<path class="st1" d="M42.57,67.55L42.57,67.55c0-1.62,0.37-3.15,1.03-4.6c-0.34-0.34-0.68-0.68-1.03-1.02V67.55z"/>
		<polygon class="st1" points="67.5,42.48 67.49,42.48 67.5,42.48 		"/>
		<path class="st1" d="M62.71,43.6c1.5-0.72,3.1-1.12,4.78-1.12h-5.65c-0.04,0.04-0.08,0.08-0.12,0.12
			C62.05,42.93,62.38,43.27,62.71,43.6z"/>
		<path class="st1" d="M23.21,42.48h-5.68c0,0,0,0,0,0c1.67,0.01,3.24,0.4,4.73,1.11c0.34-0.34,0.68-0.69,1.02-1.04
			C23.26,42.53,23.24,42.5,23.21,42.48z"/>
		<path class="st1" d="M42.5,67.48v-5.6c-0.34,0.33-0.68,0.67-1.02,1.01C42.13,64.33,42.5,65.86,42.5,67.48z"/>
		<path class="st1" d="M60.24,24.8l-0.05,0.05c0.02,0.02,0.03,0.03,0.05,0.05l0,0c0,0,0,0,0,0c1.11,1.11,2.12,2.33,3,3.64
			c4.38-8.98,9.37-16.12,9.37-16.12s-7.15,5-16.13,9.38c1.33,0.9,2.57,1.92,3.7,3.05C60.2,24.83,60.22,24.82,60.24,24.8z"/>
		<path class="st1" d="M56.52,63.28c8.97,4.38,16.09,9.36,16.09,9.36s-4.98-7.12-9.36-16.09C61.46,59.19,59.17,61.48,56.52,63.28z"
			/>
		<polygon class="st1" points="60.24,60.15 60.24,60.15 60.24,60.15 		"/>
		<path class="st1" d="M60.24,60.15c-1.13-1.14-1.95-2.47-2.51-3.94c-0.48,0-0.95,0-1.43,0.01L60.24,60.15z"/>
		<path class="st1" d="M57.67,28.99c0.56-1.53,1.39-2.91,2.57-4.09h0l-4.08,4.08C56.66,28.99,57.16,28.99,57.67,28.99z"/>
		<path class="st1" d="M24.88,24.8l0.03,0.03c0,0,0,0,0,0L24.88,24.8C24.88,24.8,24.88,24.8,24.88,24.8
			C24.88,24.8,24.88,24.8,24.88,24.8L24.88,24.8c0.01,0.01,0.02,0.02,0.03,0.02c1.13-1.13,2.37-2.14,3.7-3.04
			c-8.97-4.38-16.1-9.36-16.1-9.36s4.98,7.12,9.35,16.08c0.9-1.32,1.92-2.55,3.05-3.67C24.9,24.82,24.89,24.81,24.88,24.8z"/>
		<path class="st1" d="M60.18,24.85C60.18,24.85,60.18,24.85,60.18,24.85c-1.17,1.14-2.53,1.97-4.05,2.52c0,0.51,0,1.02,0.01,1.52
			L60.18,24.85z"/>
		<path class="st1" d="M28.92,27.35c-1.5-0.55-2.85-1.38-4.01-2.53c0,0,0,0,0,0l4,4C28.92,28.33,28.92,27.84,28.92,27.35z"/>
		<path class="st1" d="M24.88,60.26L24.88,60.26c-1.14-1.14-2.18-2.39-3.09-3.74c-4.4,8.98-9.39,16.11-9.39,16.11
			s7.13-4.99,16.1-9.38C27.2,62.36,25.99,61.36,24.88,60.26C24.88,60.26,24.88,60.26,24.88,60.26z"/>
		<path class="st1" d="M24.88,60.26C24.88,60.26,24.88,60.26,24.88,60.26c1.16-1.16,2.53-2,4.06-2.56c0-0.5,0-0.99-0.01-1.49
			L24.88,60.26z"/>
		<polygon class="st1" points="60.24,60.15 60.24,60.15 60.24,60.15 		"/>
		<path class="st1" d="M56.06,56.22c-0.01,0.45-0.01,0.89-0.01,1.34c1.57,0.56,2.99,1.4,4.18,2.59l-3.94-3.94
			C56.22,56.22,56.14,56.22,56.06,56.22z"/>
		<path class="st1" d="M24.88,60.15l3.96-3.96c-0.48-0.01-0.96-0.01-1.44-0.01C26.84,57.67,26.02,59.01,24.88,60.15z"/>
		<path class="st1" d="M28.91,28.83l-4-4c0,0,0,0,0,0c1.17,1.18,2,2.57,2.55,4.11c0.48,0,0.97,0,1.45-0.01
			C28.91,28.9,28.91,28.86,28.91,28.83z"/>
		<path class="st1" d="M58.73,81.87c0,0-1.87-8.47-2.49-18.41c-2.63,1.73-5.6,2.97-8.79,3.61C54.06,74.54,58.73,81.87,58.73,81.87z"
			/>
		<path class="st1" d="M26.24,3.24c0,0,1.88,8.5,2.49,18.47c2.63-1.74,5.6-3.01,8.8-3.66C30.92,10.58,26.24,3.24,26.24,3.24z"/>
		<path class="st1" d="M3.22,26.26c0,0,7.34,4.68,14.81,11.29c0.65-3.2,1.91-6.17,3.66-8.8C11.72,28.14,3.22,26.26,3.22,26.26z"/>
		<path class="st1" d="M26.26,81.89c0,0,4.68-7.34,11.3-14.83c-3.2-0.65-6.18-1.91-8.81-3.65C28.14,73.38,26.26,81.89,26.26,81.89z"
			/>
		<path class="st1" d="M3.2,58.87c0,0,8.52-1.89,18.5-2.49c-1.75-2.63-3.02-5.61-3.67-8.82C10.55,54.18,3.2,58.87,3.2,58.87z"/>
		<path class="st1" d="M81.87,26.28c0,0-8.49,1.88-18.46,2.51c1.73,2.62,2.99,5.59,3.63,8.77C74.53,30.95,81.87,26.28,81.87,26.28z"
			/>
		<path class="st1" d="M58.85,3.22c0,0-4.67,7.34-11.29,14.84c3.19,0.65,6.15,1.91,8.78,3.65C56.96,11.73,58.85,3.22,58.85,3.22z"/>
		<path class="st1" d="M81.79,58.89c0,0-7.31-4.66-14.77-11.26c-0.66,3.19-1.92,6.15-3.67,8.77C73.31,57.01,81.79,58.89,81.79,58.89
			z"/>
		<path class="st1" d="M57.72,51.13c0.69-1.21,1.23-2.51,1.62-3.88c0.31,0.89,0.63,1.78,0.98,2.67c2.13-0.92,4.32-1.76,6.46-2.5
			c-1.37-1.21-2.73-2.49-4.06-3.82c-1.04,0.5-2.03,1.15-2.99,1.93C59.9,44.54,60,43.53,60,42.5c0-0.01,0-0.01,0-0.02h1.84
			c0,0,0,0,0,0H60c0-1.04-0.11-2.05-0.28-3.04c1,0.82,2.05,1.5,3.15,2c1.3-1.29,2.64-2.54,3.98-3.72c-2.17-0.75-4.39-1.6-6.56-2.54
			c-0.34,0.87-0.65,1.75-0.95,2.62c-0.37-1.33-0.88-2.6-1.54-3.78c0.82,0.4,1.65,0.79,2.49,1.16c0.86-2.18,1.82-4.32,2.81-6.37
			c-1.78,0.11-3.61,0.17-5.44,0.18c-0.4,1.11-0.65,2.31-0.78,3.56c-0.58-0.84-1.23-1.63-1.95-2.35l1.21-1.21c0,0-0.01,0-0.01,0
			c0-0.03,0-0.06,0-0.09l-1.25,1.25c-0.73-0.73-1.53-1.39-2.38-1.99c1.28-0.13,2.5-0.37,3.63-0.78c0.01-1.85,0.07-3.69,0.18-5.49
			c-2.08,1.01-4.25,1.98-6.46,2.86c0.37,0.84,0.76,1.66,1.16,2.48c-1.16-0.65-2.41-1.16-3.72-1.54c0.86-0.3,1.71-0.61,2.57-0.95
			c-0.92-2.13-1.76-4.31-2.5-6.45c-1.18,1.34-2.43,2.67-3.72,3.97c0.49,1.06,1.15,2.06,1.93,3.03c-0.98-0.17-1.97-0.28-3-0.28v-1.69
			c0,0-0.01,0.01-0.01,0.01c-0.02-0.02-0.04-0.04-0.06-0.06V25c-1.05,0-2.07,0.11-3.06,0.29c0.8-0.98,1.48-2.01,1.98-3.08
			c-1.3-1.31-2.56-2.66-3.75-4c-0.75,2.15-1.58,4.34-2.51,6.49c0.87,0.35,1.75,0.67,2.63,0.97c-1.34,0.38-2.62,0.9-3.81,1.57
			c0.4-0.84,0.81-1.68,1.18-2.54c-2.19-0.87-4.35-1.84-6.41-2.84c0.11,1.8,0.17,3.65,0.18,5.5c1.12,0.41,2.33,0.66,3.6,0.79
			c-0.84,0.58-1.62,1.23-2.34,1.95l-1.26-1.26c0,0,0,0,0,0l1.26,1.26c-0.72,0.71-1.37,1.5-1.96,2.33c-0.13-1.22-0.37-2.39-0.75-3.48
			c-1.84,0-3.68-0.06-5.47-0.17c0.99,2.04,1.94,4.17,2.8,6.33c0.83-0.36,1.64-0.75,2.45-1.14c-0.64,1.15-1.16,2.38-1.53,3.67
			c-0.3-0.84-0.59-1.69-0.92-2.53c-2.19,0.95-4.43,1.8-6.63,2.56c1.35,1.2,2.7,2.45,4.01,3.76c1.09-0.5,2.13-1.18,3.12-1.99
			c-0.18,0.99-0.28,2.01-0.28,3.05h-1.79l0,0H25c0,0.01,0,0.01,0,0.02c0,1.04,0.11,2.05,0.28,3.03c-0.96-0.79-1.97-1.45-3.02-1.95
			c-1.3,1.3-2.64,2.56-3.98,3.75c2.15,0.75,4.34,1.58,6.48,2.51c0.33-0.84,0.63-1.69,0.93-2.54c0.37,1.29,0.88,2.53,1.52,3.68
			c-0.81-0.39-1.62-0.78-2.45-1.14c-0.88,2.23-1.87,4.42-2.89,6.51c1.81-0.11,3.67-0.17,5.53-0.17c0.42-1.12,0.68-2.33,0.82-3.6
			c0.58,0.82,1.22,1.6,1.93,2.3l-1.31,1.31c0.03,0,0.06,0,0.09,0c0,0,0,0.01,0,0.01l1.27-1.27c0.73,0.72,1.53,1.38,2.38,1.97
			c-1.29,0.13-2.51,0.38-3.64,0.79c0,1.82-0.07,3.64-0.17,5.42c2.05-1,4.19-1.96,6.37-2.82c-0.37-0.86-0.77-1.69-1.17-2.53
			c1.18,0.66,2.45,1.18,3.77,1.56c-0.87,0.31-1.74,0.63-2.6,0.97c0.95,2.19,1.8,4.43,2.55,6.63c1.2-1.36,2.47-2.71,3.79-4.03
			c-0.5-1.1-1.18-2.16-2-3.17C40.46,59.89,41.46,60,42.5,60v1.88c0,0,0.01-0.01,0.01-0.01c0.02,0.02,0.04,0.04,0.06,0.06V60
			c1.06,0,2.1-0.11,3.1-0.3c-0.85,1.03-1.56,2.11-2.08,3.25c1.29,1.3,2.53,2.63,3.71,3.96c0.75-2.18,1.6-4.41,2.54-6.59
			c-0.89-0.35-1.78-0.66-2.67-0.97c1.36-0.38,2.65-0.9,3.85-1.57c-0.4,0.84-0.81,1.68-1.18,2.54c2.18,0.86,4.32,1.82,6.37,2.81
			c-0.11-1.82-0.17-3.7-0.17-5.57c-1.09-0.39-2.26-0.63-3.49-0.75c0.84-0.59,1.64-1.25,2.36-1.98l1.38,1.38c0,0,0,0,0,0l-1.38-1.38
			c0.73-0.73,1.39-1.53,1.97-2.38c0.13,1.33,0.4,2.59,0.84,3.76c1.84,0.01,3.67,0.07,5.45,0.18c-1.01-2.08-1.99-4.26-2.86-6.47
			C59.44,50.3,58.58,50.71,57.72,51.13z M42.5,57.5c-8.28,0-15-6.72-15-15c0-8.28,6.72-15,15-15s15,6.72,15,15
			C57.5,50.78,50.78,57.5,42.5,57.5z"/>
		<path class="st1" d="M42.5,30C35.6,30,30,35.6,30,42.5S35.6,55,42.5,55S55,49.4,55,42.5S49.4,30,42.5,30z M42.5,52.5
			c-5.52,0-10-4.48-10-10c0-5.52,4.48-10,10-10s10,4.48,10,10C52.5,48.02,48.02,52.5,42.5,52.5z"/>
	</g>
	<g>
		<path class="st3" d="M0,0v85h85V0H0z M56.09,69.92c0.04-0.15,0.06-0.31,0.06-0.48c0-1.14-0.93-2.07-2.07-2.07
			c-1.14,0-2.07,0.93-2.07,2.07c0,0.7,0.35,1.31,0.88,1.69c-2.95,0.93-6.1,1.44-9.36,1.44c-2.37,0-4.67-0.27-6.89-0.78
			c0.01-0.09,0.03-0.19,0.03-0.28c0-1.14-0.93-2.07-2.07-2.07c-0.83,0-1.54,0.49-1.87,1.19c-5.27-1.96-9.85-5.3-13.33-9.59
			c0.01-0.09,0.03-0.18,0.03-0.27c0-1.02-0.75-1.87-1.72-2.03c-2.23-3.35-3.83-7.15-4.63-11.24c0.86-0.25,1.49-1.04,1.49-1.98
			c0-1.12-0.89-2.03-2-2.06c-0.04-0.64-0.07-1.28-0.07-1.93c0-6.18,1.81-11.93,4.92-16.76c0.28,0.15,0.6,0.24,0.94,0.24
			c1.14,0,2.07-0.93,2.07-2.07c0-0.56-0.22-1.06-0.58-1.44c3.35-3.95,7.66-7.06,12.58-8.94c-2.98,4.55-4.71,9.98-4.71,15.82
			c0,7.69,3,14.67,7.89,19.85c-1.68,1.68-5.11,3.51-12.08,3.44c0,0,8.56,6.96,18.47,1.66c2.91,1.71,6.15,2.94,9.6,3.55
			c-0.25,0.34-0.4,0.76-0.4,1.21c0,1.14,0.93,2.07,2.07,2.07c1.14,0,2.07-0.93,2.07-2.07c0-0.28-0.06-0.55-0.16-0.8
			c0.5,0.03,1,0.04,1.5,0.04c3.6,0,7.05-0.66,10.22-1.87c-0.05,0.18-0.09,0.38-0.09,0.58c0,1.14,0.93,2.07,2.07,2.07
			c0.39,0,0.74-0.11,1.05-0.3C66.65,63.14,61.83,67.38,56.09,69.92z M70.94,56.06c0-0.82-0.49-1.52-1.18-1.85
			c0.94-0.48,1.86-0.99,2.73-1.56C72.05,53.82,71.53,54.96,70.94,56.06z"/>
		<circle class="st3" cx="23.53" cy="41.72" r="3.1"/>
	</g>
</g>
<g id="Layer_2">
</g>
</svg>
