<?xml version="1.0" encoding="utf-8"?>
<!-- Generator: Adobe Illustrator 25.2.3, SVG Export Plug-In . SVG Version: 6.00 Build 0)  -->
<svg version="1.1" id="Layer_1" xmlns="http://www.w3.org/2000/svg" xmlns:xlink="http://www.w3.org/1999/xlink" x="0px" y="0px"
	 viewBox="0 0 85 85" style="enable-background:new 0 0 85 85;" xml:space="preserve">
<style type="text/css">
	.st0{display:none;fill:#FFFFFF;}
	.st1{fill:#FFFFFF;}
</style>
<path class="st0" d="M35.67,49.7c0,0,2.52,8.81-1.67,13s3.47,8.27,8.5,8.27v-3.22c0,0-4.85-0.86-4.85-2.36
	c0-1.5,5.59-5.91,2.8-15.68H35.67z"/>
<g id="Glasses_1_">
	<g id="Glasses">
		<rect x="35" y="44.34" class="st1" width="15" height="3"/>
		<path class="st1" d="M34.52,39.22c-3.07-1.4-6.45-2.18-10.02-2.18s-6.95,0.78-10.02,2.18C12.93,41.39,12,44.08,12,47
			c0,7.2,5.6,13.04,12.5,13.04S37,54.2,37,47C37,44.08,36.07,41.39,34.52,39.22z M24.5,57.28c-5.25,0-9.5-4.44-9.5-9.91
			c0-2.22,0.71-4.26,1.89-5.91c2.33-1.06,4.9-1.66,7.61-1.66s5.28,0.59,7.61,1.66c1.18,1.65,1.89,3.69,1.89,5.91
			C34,52.84,29.75,57.28,24.5,57.28z"/>
		<path class="st1" d="M70.52,39.22c-3.07-1.4-6.45-2.18-10.02-2.18s-6.95,0.78-10.02,2.18C48.93,41.39,48,44.08,48,47
			c0,7.2,5.6,13.04,12.5,13.04S73,54.2,73,47C73,44.08,72.07,41.39,70.52,39.22z M60.5,57.28c-5.25,0-9.5-4.44-9.5-9.91
			c0-2.22,0.71-4.26,1.89-5.91c2.33-1.06,4.9-1.66,7.61-1.66s5.28,0.59,7.61,1.66c1.18,1.65,1.89,3.69,1.89,5.91
			C70,52.84,65.75,57.28,60.5,57.28z"/>
		<path class="st1" d="M42.5,45.84h-6.83v4.69h0.86c0,0,0.46-3.19,5.96-3.19s5.96,3.19,5.96,3.19h0.86v-4.69H42.5z"/>
		<path class="st1" d="M42.5,43.1c-6.13,0-7.5,2.13-7.5,2.13v1.5h7.5H50v-1.5C50,45.24,48.63,43.1,42.5,43.1z"/>
	</g>
	<g>
		<polygon class="st1" points="14.48,39.22 28.73,24.97 32.47,24.97 19.97,37.47 20,39.22 		"/>
		<path class="st1" d="M32.47,24.97c0,0,2.79-0.3,2.79,2.92h-2.79l-3.74-2.92H32.47z"/>
	</g>
	<g>
		<polygon class="st1" points="70.52,39.22 56.27,24.97 52.53,24.97 65.03,37.47 65,39.22 		"/>
		<path class="st1" d="M52.53,24.97c0,0-2.79-0.3-2.79,2.92h2.79l3.74-2.92H52.53z"/>
	</g>
</g>
</svg>
